%TF.GenerationSoftware,KiCad,Pcbnew,6.0.6-1.fc35*%
%TF.CreationDate,2022-07-22T15:55:32+02:00*%
%TF.ProjectId,NE555_OC,4e453535-355f-44f4-932e-6b696361645f,rev?*%
%TF.SameCoordinates,Original*%
%TF.FileFunction,Copper,L1,Top*%
%TF.FilePolarity,Positive*%
%FSLAX46Y46*%
G04 Gerber Fmt 4.6, Leading zero omitted, Abs format (unit mm)*
G04 Created by KiCad (PCBNEW 6.0.6-1.fc35) date 2022-07-22 15:55:32*
%MOMM*%
%LPD*%
G01*
G04 APERTURE LIST*
G04 Aperture macros list*
%AMRoundRect*
0 Rectangle with rounded corners*
0 $1 Rounding radius*
0 $2 $3 $4 $5 $6 $7 $8 $9 X,Y pos of 4 corners*
0 Add a 4 corners polygon primitive as box body*
4,1,4,$2,$3,$4,$5,$6,$7,$8,$9,$2,$3,0*
0 Add four circle primitives for the rounded corners*
1,1,$1+$1,$2,$3*
1,1,$1+$1,$4,$5*
1,1,$1+$1,$6,$7*
1,1,$1+$1,$8,$9*
0 Add four rect primitives between the rounded corners*
20,1,$1+$1,$2,$3,$4,$5,0*
20,1,$1+$1,$4,$5,$6,$7,0*
20,1,$1+$1,$6,$7,$8,$9,0*
20,1,$1+$1,$8,$9,$2,$3,0*%
G04 Aperture macros list end*
%TA.AperFunction,SMDPad,CuDef*%
%ADD10RoundRect,0.250000X0.250000X0.475000X-0.250000X0.475000X-0.250000X-0.475000X0.250000X-0.475000X0*%
%TD*%
%TA.AperFunction,SMDPad,CuDef*%
%ADD11R,1.300000X1.700000*%
%TD*%
%TA.AperFunction,SMDPad,CuDef*%
%ADD12RoundRect,0.250000X-0.250000X-0.475000X0.250000X-0.475000X0.250000X0.475000X-0.250000X0.475000X0*%
%TD*%
%TA.AperFunction,SMDPad,CuDef*%
%ADD13R,1.700000X1.300000*%
%TD*%
%TA.AperFunction,ComponentPad*%
%ADD14R,1.700000X1.700000*%
%TD*%
%TA.AperFunction,ComponentPad*%
%ADD15O,1.700000X1.700000*%
%TD*%
%TA.AperFunction,SMDPad,CuDef*%
%ADD16R,0.900000X0.800000*%
%TD*%
%TA.AperFunction,SMDPad,CuDef*%
%ADD17RoundRect,0.150000X-0.825000X-0.150000X0.825000X-0.150000X0.825000X0.150000X-0.825000X0.150000X0*%
%TD*%
%TA.AperFunction,SMDPad,CuDef*%
%ADD18RoundRect,0.250000X-0.625000X0.312500X-0.625000X-0.312500X0.625000X-0.312500X0.625000X0.312500X0*%
%TD*%
%TA.AperFunction,SMDPad,CuDef*%
%ADD19R,1.500000X2.000000*%
%TD*%
%TA.AperFunction,SMDPad,CuDef*%
%ADD20R,3.800000X2.000000*%
%TD*%
%TA.AperFunction,ComponentPad*%
%ADD21C,5.600000*%
%TD*%
%TA.AperFunction,SMDPad,CuDef*%
%ADD22RoundRect,0.250000X0.625000X-0.312500X0.625000X0.312500X-0.625000X0.312500X-0.625000X-0.312500X0*%
%TD*%
%TA.AperFunction,SMDPad,CuDef*%
%ADD23RoundRect,0.250000X0.312500X0.625000X-0.312500X0.625000X-0.312500X-0.625000X0.312500X-0.625000X0*%
%TD*%
%TA.AperFunction,ComponentPad*%
%ADD24R,1.600000X1.600000*%
%TD*%
%TA.AperFunction,ComponentPad*%
%ADD25C,1.600000*%
%TD*%
%TA.AperFunction,ViaPad*%
%ADD26C,0.800000*%
%TD*%
%TA.AperFunction,Conductor*%
%ADD27C,0.304800*%
%TD*%
G04 APERTURE END LIST*
D10*
%TO.P,C2,1*%
%TO.N,Net-(C2-Pad1)*%
X59178000Y-90297000D03*
%TO.P,C2,2*%
%TO.N,GND*%
X57278000Y-90297000D03*
%TD*%
D11*
%TO.P,D3,1,K*%
%TO.N,Net-(C2-Pad1)*%
X61877000Y-86741000D03*
%TO.P,D3,2,A*%
%TO.N,Net-(D3-Pad2)*%
X65377000Y-86741000D03*
%TD*%
D12*
%TO.P,C1,1*%
%TO.N,+24V*%
X55565000Y-88011000D03*
%TO.P,C1,2*%
%TO.N,GND*%
X57465000Y-88011000D03*
%TD*%
D13*
%TO.P,D1,1,K*%
%TO.N,Net-(D1-Pad1)*%
X55180000Y-95857000D03*
%TO.P,D1,2,A*%
%TO.N,GND*%
X55180000Y-92357000D03*
%TD*%
D14*
%TO.P,J2,1,Pin_1*%
%TO.N,+24V*%
X64897000Y-78735000D03*
D15*
%TO.P,J2,2,Pin_2*%
%TO.N,Net-(D2-Pad2)*%
X64897000Y-81275000D03*
%TD*%
D14*
%TO.P,J1,1,Pin_1*%
%TO.N,+24V*%
X49911000Y-88514000D03*
D15*
%TO.P,J1,2,Pin_2*%
%TO.N,GND*%
X49911000Y-91054000D03*
%TD*%
D16*
%TO.P,Q1,1,B*%
%TO.N,Net-(Q1-Pad1)*%
X62316000Y-82026000D03*
%TO.P,Q1,2,E*%
%TO.N,GND*%
X62316000Y-80126000D03*
%TO.P,Q1,3,C*%
%TO.N,Net-(D2-Pad2)*%
X60316000Y-81076000D03*
%TD*%
D17*
%TO.P,U1,1,GND*%
%TO.N,GND*%
X57658000Y-92202000D03*
%TO.P,U1,2,TR*%
%TO.N,Net-(C2-Pad1)*%
X57658000Y-93472000D03*
%TO.P,U1,3,Q*%
%TO.N,Net-(D1-Pad1)*%
X57658000Y-94742000D03*
%TO.P,U1,4,R*%
%TO.N,+5V*%
X57658000Y-96012000D03*
%TO.P,U1,5,CV*%
%TO.N,unconnected-(U1-Pad5)*%
X62608000Y-96012000D03*
%TO.P,U1,6,THR*%
%TO.N,Net-(C2-Pad1)*%
X62608000Y-94742000D03*
%TO.P,U1,7,DIS*%
%TO.N,Net-(D3-Pad2)*%
X62608000Y-93472000D03*
%TO.P,U1,8,VCC*%
%TO.N,+5V*%
X62608000Y-92202000D03*
%TD*%
D11*
%TO.P,D2,1,K*%
%TO.N,+24V*%
X61905000Y-84328000D03*
%TO.P,D2,2,A*%
%TO.N,Net-(D2-Pad2)*%
X65405000Y-84328000D03*
%TD*%
D18*
%TO.P,R2,1*%
%TO.N,Net-(D3-Pad2)*%
X65152000Y-92263500D03*
%TO.P,R2,2*%
%TO.N,Net-(C2-Pad1)*%
X65152000Y-95188500D03*
%TD*%
D19*
%TO.P,U2,1,GND*%
%TO.N,GND*%
X51675000Y-84557000D03*
%TO.P,U2,2,VO*%
%TO.N,+5V*%
X53975000Y-84557000D03*
D20*
X53975000Y-78257000D03*
D19*
%TO.P,U2,3,VI*%
%TO.N,+24V*%
X56275000Y-84557000D03*
%TD*%
D21*
%TO.P,ref1,1*%
%TO.N,N/C*%
X46990000Y-80010000D03*
%TD*%
D22*
%TO.P,R3,1*%
%TO.N,Net-(D1-Pad1)*%
X59690000Y-86806500D03*
%TO.P,R3,2*%
%TO.N,Net-(Q1-Pad1)*%
X59690000Y-83881500D03*
%TD*%
D12*
%TO.P,C3,1*%
%TO.N,+5V*%
X53406000Y-90170000D03*
%TO.P,C3,2*%
%TO.N,GND*%
X55306000Y-90170000D03*
%TD*%
D23*
%TO.P,R1,1*%
%TO.N,+5V*%
X63820500Y-90170000D03*
%TO.P,R1,2*%
%TO.N,Net-(D3-Pad2)*%
X60895500Y-90170000D03*
%TD*%
D24*
%TO.P,C4,1*%
%TO.N,+24V*%
X53136800Y-92848421D03*
D25*
%TO.P,C4,2*%
%TO.N,GND*%
X53136800Y-95348421D03*
%TD*%
D26*
%TO.N,+24V*%
X56261000Y-83058000D03*
%TO.N,GND*%
X56261000Y-90297000D03*
X58928000Y-81026000D03*
X55245000Y-94107000D03*
%TO.N,+5V*%
X54305200Y-86614000D03*
X62738000Y-90297000D03*
X60579000Y-95504000D03*
%TO.N,Net-(D1-Pad1)*%
X59690000Y-94742000D03*
X59690000Y-87884000D03*
%TD*%
D27*
%TO.N,+24V*%
X56275000Y-86346000D02*
X55565000Y-87056000D01*
X55565000Y-87056000D02*
X55565000Y-88011000D01*
X60889000Y-85344000D02*
X61905000Y-84328000D01*
X56275000Y-84557000D02*
X56275000Y-86346000D01*
X56275000Y-84557000D02*
X57379000Y-84557000D01*
X58166000Y-85344000D02*
X60889000Y-85344000D01*
X57379000Y-84557000D02*
X58166000Y-85344000D01*
X56261000Y-84543000D02*
X56275000Y-84557000D01*
X56261000Y-83058000D02*
X56261000Y-84543000D01*
%TO.N,GND*%
X56261000Y-90297000D02*
X55433000Y-90297000D01*
X57658000Y-92202000D02*
X55335000Y-92202000D01*
X57278000Y-91187000D02*
X57658000Y-91567000D01*
X57278000Y-90297000D02*
X56261000Y-90297000D01*
X55335000Y-92202000D02*
X55180000Y-92357000D01*
X57658000Y-91567000D02*
X57658000Y-92202000D01*
X56261000Y-89281000D02*
X56261000Y-90297000D01*
X57278000Y-90297000D02*
X57278000Y-91187000D01*
X57465000Y-88077000D02*
X56261000Y-89281000D01*
X55433000Y-90297000D02*
X55306000Y-90170000D01*
X62316000Y-80126000D02*
X59320000Y-80126000D01*
X55180000Y-94042000D02*
X55245000Y-94107000D01*
X55180000Y-92357000D02*
X55180000Y-94042000D01*
X57465000Y-88011000D02*
X57465000Y-88077000D01*
X59320000Y-80126000D02*
X59055000Y-80391000D01*
%TO.N,Net-(C2-Pad1)*%
X61877000Y-87221000D02*
X59178000Y-89920000D01*
X63500000Y-94742000D02*
X62608000Y-94742000D01*
X59178000Y-93095000D02*
X58801000Y-93472000D01*
X59563000Y-93472000D02*
X60833000Y-94742000D01*
X63946500Y-95188500D02*
X63500000Y-94742000D01*
X57658000Y-93472000D02*
X58801000Y-93472000D01*
X58801000Y-93472000D02*
X59563000Y-93472000D01*
X65152000Y-95188500D02*
X63946500Y-95188500D01*
X59178000Y-90297000D02*
X59178000Y-93095000D01*
X61877000Y-86741000D02*
X61877000Y-87221000D01*
X59178000Y-89920000D02*
X59178000Y-90297000D01*
X60833000Y-94742000D02*
X62608000Y-94742000D01*
%TO.N,+5V*%
X60071000Y-96012000D02*
X60579000Y-95504000D01*
X63693500Y-90297000D02*
X63820500Y-90170000D01*
X53975000Y-84557000D02*
X53975000Y-86283800D01*
X63820500Y-90989500D02*
X62608000Y-92202000D01*
X53975000Y-86283800D02*
X53975000Y-87757000D01*
X54305200Y-86614000D02*
X53975000Y-86283800D01*
X62738000Y-90297000D02*
X63693500Y-90297000D01*
X57658000Y-96012000D02*
X60071000Y-96012000D01*
X63820500Y-90170000D02*
X63820500Y-90989500D01*
X53975000Y-78257000D02*
X53975000Y-84557000D01*
X53406000Y-88326000D02*
X53406000Y-90170000D01*
X53975000Y-87757000D02*
X53406000Y-88326000D01*
%TO.N,Net-(D1-Pad1)*%
X57658000Y-94742000D02*
X59690000Y-94742000D01*
X59690000Y-87884000D02*
X59690000Y-86806500D01*
X57658000Y-94742000D02*
X56295000Y-94742000D01*
X56295000Y-94742000D02*
X55180000Y-95857000D01*
%TO.N,Net-(D2-Pad2)*%
X65405000Y-81783000D02*
X64897000Y-81275000D01*
X64698000Y-81076000D02*
X64897000Y-81275000D01*
X60316000Y-81076000D02*
X64698000Y-81076000D01*
X65405000Y-84328000D02*
X65405000Y-81783000D01*
%TO.N,Net-(D3-Pad2)*%
X65152000Y-92263500D02*
X65152000Y-86966000D01*
X63943500Y-93472000D02*
X65152000Y-92263500D01*
X65152000Y-86966000D02*
X65377000Y-86741000D01*
X61595000Y-93472000D02*
X62608000Y-93472000D01*
X60895500Y-90170000D02*
X60895500Y-92772500D01*
X62608000Y-93472000D02*
X63943500Y-93472000D01*
X60895500Y-92772500D02*
X61595000Y-93472000D01*
%TO.N,Net-(Q1-Pad1)*%
X62316000Y-82026000D02*
X61545500Y-82026000D01*
X61545500Y-82026000D02*
X59690000Y-83881500D01*
%TD*%
%TA.AperFunction,Conductor*%
%TO.N,GND*%
G36*
X51666621Y-77205502D02*
G01*
X51713114Y-77259158D01*
X51724500Y-77311500D01*
X51724500Y-79290218D01*
X51725170Y-79294768D01*
X51725170Y-79294771D01*
X51733216Y-79349426D01*
X51734642Y-79359112D01*
X51750025Y-79390443D01*
X51776737Y-79444849D01*
X51786068Y-79463855D01*
X51868650Y-79546293D01*
X51973482Y-79597536D01*
X52003973Y-79601984D01*
X52037256Y-79606840D01*
X52037260Y-79606840D01*
X52041782Y-79607500D01*
X53346100Y-79607500D01*
X53414221Y-79627502D01*
X53460714Y-79681158D01*
X53472100Y-79733500D01*
X53472100Y-83080500D01*
X53452098Y-83148621D01*
X53398442Y-83195114D01*
X53346100Y-83206500D01*
X53191782Y-83206500D01*
X53187232Y-83207170D01*
X53187229Y-83207170D01*
X53132574Y-83215216D01*
X53132573Y-83215216D01*
X53122888Y-83216642D01*
X53072992Y-83241140D01*
X53027493Y-83263478D01*
X53027491Y-83263479D01*
X53018145Y-83268068D01*
X52935707Y-83350650D01*
X52931132Y-83360010D01*
X52927288Y-83365399D01*
X52871447Y-83409243D01*
X52800766Y-83415936D01*
X52737687Y-83383355D01*
X52722257Y-83365578D01*
X52706153Y-83343084D01*
X52638428Y-83275477D01*
X52621700Y-83263545D01*
X52535162Y-83221245D01*
X52516694Y-83215537D01*
X52462703Y-83207660D01*
X52453604Y-83207000D01*
X51868115Y-83207000D01*
X51852876Y-83211475D01*
X51851671Y-83212865D01*
X51850000Y-83220548D01*
X51850000Y-85888884D01*
X51854475Y-85904123D01*
X51855865Y-85905328D01*
X51863548Y-85906999D01*
X52453568Y-85906999D01*
X52462734Y-85906328D01*
X52517278Y-85898300D01*
X52535759Y-85892557D01*
X52622213Y-85850111D01*
X52638918Y-85838151D01*
X52706523Y-85770428D01*
X52722092Y-85748601D01*
X52777934Y-85704758D01*
X52848615Y-85698065D01*
X52911693Y-85730647D01*
X52927122Y-85748422D01*
X52931478Y-85754507D01*
X52936068Y-85763855D01*
X52954823Y-85782577D01*
X53008651Y-85836311D01*
X53018650Y-85846293D01*
X53028006Y-85850866D01*
X53028007Y-85850867D01*
X53042154Y-85857782D01*
X53123482Y-85897536D01*
X53148152Y-85901135D01*
X53187256Y-85906840D01*
X53187260Y-85906840D01*
X53191782Y-85907500D01*
X53346100Y-85907500D01*
X53414221Y-85927502D01*
X53460714Y-85981158D01*
X53472100Y-86033500D01*
X53472100Y-86213354D01*
X53470765Y-86225311D01*
X53471266Y-86225351D01*
X53470546Y-86234297D01*
X53468565Y-86243053D01*
X53469121Y-86252013D01*
X53471858Y-86296131D01*
X53472100Y-86303933D01*
X53472100Y-87496502D01*
X53452098Y-87564623D01*
X53435195Y-87585597D01*
X53100210Y-87920582D01*
X53090811Y-87928092D01*
X53091138Y-87928476D01*
X53084305Y-87934291D01*
X53076709Y-87939084D01*
X53070764Y-87945815D01*
X53070761Y-87945818D01*
X53041506Y-87978944D01*
X53036160Y-87984632D01*
X53024864Y-87995928D01*
X53022176Y-87999514D01*
X53022172Y-87999519D01*
X53018689Y-88004166D01*
X53012308Y-88012004D01*
X53000949Y-88024866D01*
X52981351Y-88047057D01*
X52977536Y-88055182D01*
X52975597Y-88058134D01*
X52967423Y-88071737D01*
X52965728Y-88074832D01*
X52960347Y-88082013D01*
X52957197Y-88090417D01*
X52957196Y-88090418D01*
X52943933Y-88125798D01*
X52940006Y-88135118D01*
X52925508Y-88165998D01*
X52920129Y-88177454D01*
X52918748Y-88186325D01*
X52917712Y-88189714D01*
X52913689Y-88205052D01*
X52912932Y-88208493D01*
X52909781Y-88216899D01*
X52909116Y-88225850D01*
X52906316Y-88263532D01*
X52905162Y-88273580D01*
X52903850Y-88282008D01*
X52903100Y-88286825D01*
X52903100Y-88302127D01*
X52902754Y-88311464D01*
X52899106Y-88360557D01*
X52900979Y-88369332D01*
X52901584Y-88378204D01*
X52903100Y-88392567D01*
X52903100Y-89070129D01*
X52883098Y-89138250D01*
X52851528Y-89168338D01*
X52853159Y-89170464D01*
X52761751Y-89240604D01*
X52727718Y-89266718D01*
X52722695Y-89273264D01*
X52701756Y-89300552D01*
X52631464Y-89392159D01*
X52570956Y-89538238D01*
X52569878Y-89546426D01*
X52556778Y-89645935D01*
X52555500Y-89655639D01*
X52555501Y-90684360D01*
X52556039Y-90688444D01*
X52556039Y-90688450D01*
X52569878Y-90793575D01*
X52570956Y-90801762D01*
X52631464Y-90947841D01*
X52727718Y-91073282D01*
X52853159Y-91169536D01*
X52999238Y-91230044D01*
X53007426Y-91231122D01*
X53112545Y-91244961D01*
X53116639Y-91245500D01*
X53405964Y-91245500D01*
X53695360Y-91245499D01*
X53699444Y-91244961D01*
X53699450Y-91244961D01*
X53804575Y-91231122D01*
X53804577Y-91231122D01*
X53812762Y-91230044D01*
X53958841Y-91169536D01*
X54084282Y-91073282D01*
X54180536Y-90947841D01*
X54239863Y-90804614D01*
X54284410Y-90749334D01*
X54351774Y-90726913D01*
X54420565Y-90744471D01*
X54468943Y-90796433D01*
X54472680Y-90804615D01*
X54528741Y-90939959D01*
X54536930Y-90954142D01*
X54623046Y-91066372D01*
X54634630Y-91077956D01*
X54703809Y-91131039D01*
X54745676Y-91188377D01*
X54749898Y-91259248D01*
X54715134Y-91321151D01*
X54652421Y-91354432D01*
X54627105Y-91357001D01*
X54301432Y-91357001D01*
X54292266Y-91357672D01*
X54237722Y-91365700D01*
X54219241Y-91371443D01*
X54132787Y-91413889D01*
X54116082Y-91425849D01*
X54048477Y-91493572D01*
X54036545Y-91510300D01*
X53994243Y-91596841D01*
X53990445Y-91609129D01*
X53951218Y-91668306D01*
X53886226Y-91696880D01*
X53870064Y-91697921D01*
X52303582Y-91697921D01*
X52299032Y-91698591D01*
X52299029Y-91698591D01*
X52244374Y-91706637D01*
X52244373Y-91706637D01*
X52234688Y-91708063D01*
X52188883Y-91730552D01*
X52139293Y-91754899D01*
X52139291Y-91754900D01*
X52129945Y-91759489D01*
X52047507Y-91842071D01*
X51996264Y-91946903D01*
X51986300Y-92015203D01*
X51986300Y-93681639D01*
X51986970Y-93686189D01*
X51986970Y-93686192D01*
X51995016Y-93740847D01*
X51996442Y-93750533D01*
X52011171Y-93780533D01*
X52039916Y-93839079D01*
X52047868Y-93855276D01*
X52130450Y-93937714D01*
X52235282Y-93988957D01*
X52265773Y-93993405D01*
X52299056Y-93998261D01*
X52299060Y-93998261D01*
X52303582Y-93998921D01*
X52766391Y-93998921D01*
X52834512Y-94018923D01*
X52881005Y-94072579D01*
X52891109Y-94142853D01*
X52861615Y-94207433D01*
X52810002Y-94243133D01*
X52645007Y-94304003D01*
X52634629Y-94308953D01*
X52464612Y-94410102D01*
X52458902Y-94419105D01*
X52464734Y-94428867D01*
X53123989Y-95088123D01*
X53137932Y-95095736D01*
X53139766Y-95095605D01*
X53146380Y-95091354D01*
X53806038Y-94431695D01*
X53812795Y-94419320D01*
X53806765Y-94411264D01*
X53666009Y-94322455D01*
X53655765Y-94317235D01*
X53467065Y-94241951D01*
X53411206Y-94198130D01*
X53387906Y-94131066D01*
X53404562Y-94062051D01*
X53455886Y-94012996D01*
X53513756Y-93998921D01*
X53970018Y-93998921D01*
X53974568Y-93998251D01*
X53974571Y-93998251D01*
X54029226Y-93990205D01*
X54029227Y-93990205D01*
X54038912Y-93988779D01*
X54093622Y-93961918D01*
X54134307Y-93941943D01*
X54134309Y-93941942D01*
X54143655Y-93937353D01*
X54226093Y-93854771D01*
X54231119Y-93844490D01*
X54256896Y-93791754D01*
X54277336Y-93749939D01*
X54287300Y-93681639D01*
X54287300Y-93483000D01*
X54307302Y-93414879D01*
X54360958Y-93368386D01*
X54413300Y-93357000D01*
X54986885Y-93357000D01*
X55002124Y-93352525D01*
X55003329Y-93351135D01*
X55005000Y-93343452D01*
X55005000Y-92308000D01*
X55025002Y-92239879D01*
X55078658Y-92193386D01*
X55131000Y-92182000D01*
X56274884Y-92182000D01*
X56290123Y-92177526D01*
X56291329Y-92176134D01*
X56293000Y-92168452D01*
X56293000Y-92153000D01*
X56313002Y-92084879D01*
X56366658Y-92038386D01*
X56419000Y-92027000D01*
X57707000Y-92027000D01*
X57775121Y-92047002D01*
X57821614Y-92100658D01*
X57833000Y-92153000D01*
X57833000Y-92251000D01*
X57812998Y-92319121D01*
X57759342Y-92365614D01*
X57707000Y-92377000D01*
X56438116Y-92377000D01*
X56422877Y-92381474D01*
X56421671Y-92382866D01*
X56420000Y-92390548D01*
X56420000Y-92406000D01*
X56399998Y-92474121D01*
X56346342Y-92520614D01*
X56294000Y-92532000D01*
X55373115Y-92532000D01*
X55357876Y-92536475D01*
X55356671Y-92537865D01*
X55355000Y-92545548D01*
X55355000Y-93338884D01*
X55359475Y-93354123D01*
X55360865Y-93355328D01*
X55368548Y-93356999D01*
X56058568Y-93356999D01*
X56067734Y-93356328D01*
X56122278Y-93348300D01*
X56140758Y-93342558D01*
X56150967Y-93337545D01*
X56220930Y-93325476D01*
X56286312Y-93353148D01*
X56326354Y-93411775D01*
X56332500Y-93450646D01*
X56332501Y-93661857D01*
X56332501Y-93669376D01*
X56332870Y-93672770D01*
X56332870Y-93672776D01*
X56334328Y-93686192D01*
X56339149Y-93730580D01*
X56389474Y-93864824D01*
X56394854Y-93872003D01*
X56394856Y-93872006D01*
X56447272Y-93941943D01*
X56475454Y-93979546D01*
X56510985Y-94006175D01*
X56553499Y-94063034D01*
X56558523Y-94133853D01*
X56524463Y-94196146D01*
X56510984Y-94207825D01*
X56502845Y-94213925D01*
X56436339Y-94238774D01*
X56427279Y-94239100D01*
X56365446Y-94239100D01*
X56353489Y-94237765D01*
X56353449Y-94238266D01*
X56344503Y-94237546D01*
X56335747Y-94235565D01*
X56284023Y-94238774D01*
X56282669Y-94238858D01*
X56274867Y-94239100D01*
X56258893Y-94239100D01*
X56248696Y-94240561D01*
X56238648Y-94241590D01*
X56223090Y-94242555D01*
X56200929Y-94243929D01*
X56200927Y-94243929D01*
X56191970Y-94244485D01*
X56183530Y-94247532D01*
X56180091Y-94248244D01*
X56164651Y-94252094D01*
X56161283Y-94253079D01*
X56152401Y-94254351D01*
X56144235Y-94258064D01*
X56144231Y-94258065D01*
X56109829Y-94273707D01*
X56100466Y-94277519D01*
X56056475Y-94293400D01*
X56049226Y-94298696D01*
X56046113Y-94300351D01*
X56032419Y-94308353D01*
X56029442Y-94310257D01*
X56021266Y-94313974D01*
X56014466Y-94319833D01*
X56014465Y-94319834D01*
X55985841Y-94344499D01*
X55977916Y-94350791D01*
X55971040Y-94355814D01*
X55971035Y-94355818D01*
X55967097Y-94358695D01*
X55956282Y-94369510D01*
X55949436Y-94375868D01*
X55912136Y-94408007D01*
X55907252Y-94415542D01*
X55901404Y-94422246D01*
X55892325Y-94433467D01*
X55506197Y-94819595D01*
X55443885Y-94853621D01*
X55417102Y-94856500D01*
X54296782Y-94856500D01*
X54292224Y-94857171D01*
X54275448Y-94859640D01*
X54205141Y-94849771D01*
X54151330Y-94803458D01*
X54144094Y-94790712D01*
X54124096Y-94750162D01*
X54118078Y-94740340D01*
X54075177Y-94682889D01*
X54063917Y-94674438D01*
X54051501Y-94681208D01*
X53384287Y-95348421D01*
X53136800Y-95595908D01*
X52468806Y-96263903D01*
X52462611Y-96275248D01*
X52472493Y-96287738D01*
X52580912Y-96360181D01*
X52591025Y-96365672D01*
X52774605Y-96444544D01*
X52785538Y-96448096D01*
X52980415Y-96492192D01*
X52991825Y-96493694D01*
X53191476Y-96501538D01*
X53202958Y-96500936D01*
X53400698Y-96472266D01*
X53411881Y-96469581D01*
X53601083Y-96405355D01*
X53611586Y-96400679D01*
X53790958Y-96300227D01*
X53792159Y-96302371D01*
X53849583Y-96283552D01*
X53918293Y-96301427D01*
X53966431Y-96353611D01*
X53979500Y-96409491D01*
X53979500Y-96540218D01*
X53989642Y-96609112D01*
X54041068Y-96713855D01*
X54123650Y-96796293D01*
X54228482Y-96847536D01*
X54258973Y-96851984D01*
X54292256Y-96856840D01*
X54292260Y-96856840D01*
X54296782Y-96857500D01*
X56063218Y-96857500D01*
X56067768Y-96856830D01*
X56067771Y-96856830D01*
X56122426Y-96848784D01*
X56122427Y-96848784D01*
X56132112Y-96847358D01*
X56226804Y-96800867D01*
X56227507Y-96800522D01*
X56227509Y-96800521D01*
X56236855Y-96795932D01*
X56319293Y-96713350D01*
X56363610Y-96622687D01*
X56411494Y-96570271D01*
X56480116Y-96552064D01*
X56552374Y-96577195D01*
X56582994Y-96600144D01*
X56582997Y-96600146D01*
X56590176Y-96605526D01*
X56679561Y-96639034D01*
X56717025Y-96653079D01*
X56717027Y-96653079D01*
X56724420Y-96655851D01*
X56732270Y-96656704D01*
X56732271Y-96656704D01*
X56782217Y-96662130D01*
X56785623Y-96662500D01*
X57657872Y-96662500D01*
X58530376Y-96662499D01*
X58533770Y-96662130D01*
X58533776Y-96662130D01*
X58583722Y-96656705D01*
X58583726Y-96656704D01*
X58591580Y-96655851D01*
X58725824Y-96605526D01*
X58733003Y-96600146D01*
X58733006Y-96600144D01*
X58813156Y-96540074D01*
X58879662Y-96515226D01*
X58888721Y-96514900D01*
X60000554Y-96514900D01*
X60012511Y-96516235D01*
X60012551Y-96515734D01*
X60021497Y-96516454D01*
X60030253Y-96518435D01*
X60083332Y-96515142D01*
X60091133Y-96514900D01*
X60107107Y-96514900D01*
X60117304Y-96513439D01*
X60127352Y-96512410D01*
X60142910Y-96511445D01*
X60165071Y-96510071D01*
X60165073Y-96510071D01*
X60174030Y-96509515D01*
X60182470Y-96506468D01*
X60185917Y-96505754D01*
X60201305Y-96501918D01*
X60204713Y-96500921D01*
X60213599Y-96499649D01*
X60221773Y-96495933D01*
X60221775Y-96495932D01*
X60256166Y-96480296D01*
X60265531Y-96476483D01*
X60284650Y-96469581D01*
X60309525Y-96460601D01*
X60316776Y-96455304D01*
X60319871Y-96453658D01*
X60333588Y-96445643D01*
X60336559Y-96443743D01*
X60344734Y-96440026D01*
X60380171Y-96409491D01*
X60388085Y-96403208D01*
X60394968Y-96398180D01*
X60394971Y-96398178D01*
X60398903Y-96395305D01*
X60409718Y-96384490D01*
X60416565Y-96378132D01*
X60453864Y-96345993D01*
X60458748Y-96338458D01*
X60464596Y-96331754D01*
X60473675Y-96320533D01*
X60500064Y-96294144D01*
X60562376Y-96260118D01*
X60577736Y-96257759D01*
X60730864Y-96243823D01*
X60737566Y-96241645D01*
X60737568Y-96241645D01*
X60884298Y-96193970D01*
X60884301Y-96193969D01*
X60890997Y-96191793D01*
X61035623Y-96105578D01*
X61040718Y-96100726D01*
X61040726Y-96100720D01*
X61069610Y-96073214D01*
X61132735Y-96040722D01*
X61203405Y-96047516D01*
X61259184Y-96091439D01*
X61282501Y-96164460D01*
X61282501Y-96209376D01*
X61282870Y-96212770D01*
X61282870Y-96212776D01*
X61288013Y-96260118D01*
X61289149Y-96270580D01*
X61339474Y-96404824D01*
X61344854Y-96412003D01*
X61344856Y-96412006D01*
X61412242Y-96501918D01*
X61425454Y-96519546D01*
X61432635Y-96524928D01*
X61532994Y-96600144D01*
X61532997Y-96600146D01*
X61540176Y-96605526D01*
X61629561Y-96639034D01*
X61667025Y-96653079D01*
X61667027Y-96653079D01*
X61674420Y-96655851D01*
X61682270Y-96656704D01*
X61682271Y-96656704D01*
X61732217Y-96662130D01*
X61735623Y-96662500D01*
X62607872Y-96662500D01*
X63480376Y-96662499D01*
X63483770Y-96662130D01*
X63483776Y-96662130D01*
X63533722Y-96656705D01*
X63533726Y-96656704D01*
X63541580Y-96655851D01*
X63675824Y-96605526D01*
X63683003Y-96600146D01*
X63683006Y-96600144D01*
X63783365Y-96524928D01*
X63790546Y-96519546D01*
X63803758Y-96501918D01*
X63871144Y-96412006D01*
X63871146Y-96412003D01*
X63876526Y-96404824D01*
X63915737Y-96300227D01*
X63924079Y-96277975D01*
X63924079Y-96277973D01*
X63926851Y-96270580D01*
X63929995Y-96241645D01*
X63933131Y-96212774D01*
X63933131Y-96212773D01*
X63933500Y-96209377D01*
X63933500Y-96058009D01*
X63953502Y-95989888D01*
X64007158Y-95943395D01*
X64077432Y-95933291D01*
X64136204Y-95958046D01*
X64224159Y-96025536D01*
X64370238Y-96086044D01*
X64378426Y-96087122D01*
X64483545Y-96100961D01*
X64487639Y-96101500D01*
X65151919Y-96101500D01*
X65816360Y-96101499D01*
X65820444Y-96100961D01*
X65820450Y-96100961D01*
X65925575Y-96087122D01*
X65925577Y-96087122D01*
X65933762Y-96086044D01*
X66079841Y-96025536D01*
X66121796Y-95993343D01*
X66188017Y-95967743D01*
X66257565Y-95982008D01*
X66308361Y-96031609D01*
X66324500Y-96093306D01*
X66324500Y-97059500D01*
X66304498Y-97127621D01*
X66250842Y-97174114D01*
X66198500Y-97185500D01*
X48101500Y-97185500D01*
X48033379Y-97165498D01*
X47986886Y-97111842D01*
X47975500Y-97059500D01*
X47975500Y-95323955D01*
X51982647Y-95323955D01*
X51995714Y-95523323D01*
X51997515Y-95534693D01*
X52046696Y-95728344D01*
X52050537Y-95739190D01*
X52134186Y-95920639D01*
X52139937Y-95930600D01*
X52198714Y-96013769D01*
X52209304Y-96022157D01*
X52222603Y-96015130D01*
X52876502Y-95361232D01*
X52884115Y-95347289D01*
X52883984Y-95345455D01*
X52879733Y-95338841D01*
X52221603Y-94680712D01*
X52208768Y-94673703D01*
X52198076Y-94681501D01*
X52171778Y-94714861D01*
X52165504Y-94724522D01*
X52072479Y-94901333D01*
X52068073Y-94911970D01*
X52008825Y-95102777D01*
X52006432Y-95114035D01*
X51982948Y-95312454D01*
X51982647Y-95323955D01*
X47975500Y-95323955D01*
X47975500Y-91242474D01*
X48721222Y-91242474D01*
X48722117Y-91248120D01*
X48773563Y-91450689D01*
X48777401Y-91461527D01*
X48864898Y-91651324D01*
X48870649Y-91661285D01*
X48991272Y-91831962D01*
X48998740Y-91840705D01*
X49148446Y-91986543D01*
X49157380Y-91993777D01*
X49331152Y-92109889D01*
X49341265Y-92115380D01*
X49533288Y-92197879D01*
X49544221Y-92201431D01*
X49718332Y-92240828D01*
X49732405Y-92239939D01*
X49736000Y-92230540D01*
X49736000Y-92223146D01*
X50086000Y-92223146D01*
X50089966Y-92236652D01*
X50103965Y-92238656D01*
X50186613Y-92226673D01*
X50197809Y-92223985D01*
X50395707Y-92156807D01*
X50406216Y-92152128D01*
X50588552Y-92050015D01*
X50598045Y-92043490D01*
X50758725Y-91909854D01*
X50766854Y-91901725D01*
X50900490Y-91741045D01*
X50907015Y-91731552D01*
X51009128Y-91549216D01*
X51013807Y-91538707D01*
X51080985Y-91340809D01*
X51083673Y-91329613D01*
X51095661Y-91246929D01*
X51093675Y-91232993D01*
X51080107Y-91229000D01*
X50104115Y-91229000D01*
X50088876Y-91233475D01*
X50087671Y-91234865D01*
X50086000Y-91242548D01*
X50086000Y-92223146D01*
X49736000Y-92223146D01*
X49736000Y-91247115D01*
X49731525Y-91231876D01*
X49730135Y-91230671D01*
X49722452Y-91229000D01*
X48737924Y-91229000D01*
X48722884Y-91233416D01*
X48721222Y-91242474D01*
X47975500Y-91242474D01*
X47975500Y-89397218D01*
X48710500Y-89397218D01*
X48711170Y-89401768D01*
X48711170Y-89401771D01*
X48719216Y-89456426D01*
X48720642Y-89466112D01*
X48743470Y-89512608D01*
X48767403Y-89561353D01*
X48772068Y-89570855D01*
X48854650Y-89653293D01*
X48959482Y-89704536D01*
X48989973Y-89708984D01*
X49023256Y-89713840D01*
X49023260Y-89713840D01*
X49027782Y-89714500D01*
X49369015Y-89714500D01*
X49437136Y-89734502D01*
X49483629Y-89788158D01*
X49493733Y-89858432D01*
X49464239Y-89923012D01*
X49412625Y-89958712D01*
X49397592Y-89964258D01*
X49387210Y-89969210D01*
X49207604Y-90076064D01*
X49198292Y-90082829D01*
X49041163Y-90220629D01*
X49033246Y-90228972D01*
X48903862Y-90393095D01*
X48897591Y-90402751D01*
X48800287Y-90587696D01*
X48795881Y-90598333D01*
X48733908Y-90797917D01*
X48731515Y-90809173D01*
X48725380Y-90861012D01*
X48727822Y-90875431D01*
X48740564Y-90879000D01*
X51081946Y-90879000D01*
X51096491Y-90874729D01*
X51098554Y-90862595D01*
X51096490Y-90840134D01*
X51094393Y-90828820D01*
X51037664Y-90627675D01*
X51033542Y-90616936D01*
X50941107Y-90429497D01*
X50935097Y-90419689D01*
X50810047Y-90252227D01*
X50802357Y-90243687D01*
X50648883Y-90101816D01*
X50639758Y-90094815D01*
X50463006Y-89983293D01*
X50452759Y-89978072D01*
X50401270Y-89957530D01*
X50345411Y-89913709D01*
X50322110Y-89846645D01*
X50338766Y-89777630D01*
X50390090Y-89728576D01*
X50447960Y-89714500D01*
X50794218Y-89714500D01*
X50798768Y-89713830D01*
X50798771Y-89713830D01*
X50853426Y-89705784D01*
X50853427Y-89705784D01*
X50863112Y-89704358D01*
X50931937Y-89670567D01*
X50958507Y-89657522D01*
X50958509Y-89657521D01*
X50967855Y-89652932D01*
X51025158Y-89595529D01*
X51042935Y-89577721D01*
X51042935Y-89577720D01*
X51050293Y-89570350D01*
X51056021Y-89558633D01*
X51078518Y-89512608D01*
X51101536Y-89465518D01*
X51111500Y-89397218D01*
X51111500Y-87630782D01*
X51102871Y-87572162D01*
X51102784Y-87571574D01*
X51102784Y-87571573D01*
X51101358Y-87561888D01*
X51069323Y-87496640D01*
X51054522Y-87466493D01*
X51054521Y-87466491D01*
X51049932Y-87457145D01*
X50967350Y-87374707D01*
X50862518Y-87323464D01*
X50832027Y-87319016D01*
X50798744Y-87314160D01*
X50798740Y-87314160D01*
X50794218Y-87313500D01*
X49027782Y-87313500D01*
X49023232Y-87314170D01*
X49023229Y-87314170D01*
X48968574Y-87322216D01*
X48968573Y-87322216D01*
X48958888Y-87323642D01*
X48940639Y-87332602D01*
X48863493Y-87370478D01*
X48863491Y-87370479D01*
X48854145Y-87375068D01*
X48771707Y-87457650D01*
X48720464Y-87562482D01*
X48719052Y-87572162D01*
X48711458Y-87624218D01*
X48710500Y-87630782D01*
X48710500Y-89397218D01*
X47975500Y-89397218D01*
X47975500Y-85585568D01*
X50575001Y-85585568D01*
X50575672Y-85594734D01*
X50583700Y-85649278D01*
X50589443Y-85667759D01*
X50631889Y-85754213D01*
X50643849Y-85770918D01*
X50711572Y-85838523D01*
X50728300Y-85850455D01*
X50814838Y-85892755D01*
X50833306Y-85898463D01*
X50887297Y-85906340D01*
X50896396Y-85907000D01*
X51481885Y-85907000D01*
X51497124Y-85902525D01*
X51498329Y-85901135D01*
X51500000Y-85893452D01*
X51500000Y-84750115D01*
X51495525Y-84734876D01*
X51494135Y-84733671D01*
X51486452Y-84732000D01*
X50593116Y-84732000D01*
X50577877Y-84736475D01*
X50576672Y-84737865D01*
X50575001Y-84745548D01*
X50575001Y-85585568D01*
X47975500Y-85585568D01*
X47975500Y-84363885D01*
X50575000Y-84363885D01*
X50579475Y-84379124D01*
X50580865Y-84380329D01*
X50588548Y-84382000D01*
X51481885Y-84382000D01*
X51497124Y-84377525D01*
X51498329Y-84376135D01*
X51500000Y-84368452D01*
X51500000Y-83225116D01*
X51495525Y-83209877D01*
X51494135Y-83208672D01*
X51486452Y-83207001D01*
X50896432Y-83207001D01*
X50887266Y-83207672D01*
X50832722Y-83215700D01*
X50814241Y-83221443D01*
X50727787Y-83263889D01*
X50711082Y-83275849D01*
X50643477Y-83343572D01*
X50631545Y-83360300D01*
X50589245Y-83446838D01*
X50583537Y-83465306D01*
X50575660Y-83519297D01*
X50575000Y-83528396D01*
X50575000Y-84363885D01*
X47975500Y-84363885D01*
X47975500Y-84253051D01*
X47975915Y-84244785D01*
X47978084Y-84236544D01*
X47977534Y-84226867D01*
X47977547Y-84226377D01*
X47977722Y-84224641D01*
X47977677Y-84221584D01*
X47979200Y-84165456D01*
X47982559Y-84041596D01*
X47959356Y-83848044D01*
X47908160Y-83659948D01*
X47830068Y-83481335D01*
X47827624Y-83477424D01*
X47827621Y-83477419D01*
X47729198Y-83319943D01*
X47729197Y-83319942D01*
X47726751Y-83316028D01*
X47692562Y-83275849D01*
X47688259Y-83270792D01*
X47659347Y-83205949D01*
X47670081Y-83135768D01*
X47717053Y-83082532D01*
X47752034Y-83067317D01*
X47961701Y-83011921D01*
X47961702Y-83011921D01*
X47965092Y-83011025D01*
X48293536Y-82883630D01*
X48605733Y-82720417D01*
X48812929Y-82580661D01*
X48894875Y-82525388D01*
X48894877Y-82525387D01*
X48897791Y-82523421D01*
X48967912Y-82463744D01*
X49163397Y-82297373D01*
X49163398Y-82297372D01*
X49166070Y-82295098D01*
X49244141Y-82211961D01*
X49404815Y-82040861D01*
X49404819Y-82040856D01*
X49407226Y-82038293D01*
X49409331Y-82035479D01*
X49409337Y-82035472D01*
X49616144Y-81759026D01*
X49618253Y-81756207D01*
X49661381Y-81682698D01*
X49688321Y-81636779D01*
X49796521Y-81452356D01*
X49939809Y-81130527D01*
X50046329Y-80794732D01*
X50114755Y-80449156D01*
X50115049Y-80445656D01*
X50144051Y-80100288D01*
X50144051Y-80100281D01*
X50144234Y-80098106D01*
X50145464Y-80010000D01*
X50144829Y-79998630D01*
X50125995Y-79661772D01*
X50125799Y-79658264D01*
X50078815Y-79380475D01*
X50067636Y-79314381D01*
X50067635Y-79314376D01*
X50067049Y-79310912D01*
X49969946Y-78972273D01*
X49923066Y-78858535D01*
X49837038Y-78649814D01*
X49837034Y-78649807D01*
X49835700Y-78646569D01*
X49754955Y-78499694D01*
X49667681Y-78340943D01*
X49667676Y-78340936D01*
X49665985Y-78337859D01*
X49462916Y-78049991D01*
X49229025Y-77786552D01*
X49017070Y-77595707D01*
X48969844Y-77553184D01*
X48969841Y-77553182D01*
X48967226Y-77550827D01*
X48964373Y-77548785D01*
X48964365Y-77548778D01*
X48776039Y-77413951D01*
X48732293Y-77358033D01*
X48725724Y-77287341D01*
X48758416Y-77224319D01*
X48819991Y-77188977D01*
X48849386Y-77185500D01*
X51598500Y-77185500D01*
X51666621Y-77205502D01*
G37*
%TD.AperFunction*%
%TA.AperFunction,Conductor*%
G36*
X56579565Y-88585471D02*
G01*
X56627943Y-88637433D01*
X56631680Y-88645615D01*
X56687741Y-88780959D01*
X56695930Y-88795142D01*
X56782046Y-88907372D01*
X56793626Y-88918952D01*
X56905864Y-89005075D01*
X56907711Y-89006141D01*
X56908957Y-89007448D01*
X56912412Y-89010099D01*
X56911999Y-89010638D01*
X56956704Y-89057525D01*
X56970138Y-89127239D01*
X56943750Y-89193149D01*
X56885917Y-89234330D01*
X56877318Y-89236966D01*
X56863740Y-89240604D01*
X56733041Y-89294741D01*
X56718858Y-89302930D01*
X56606628Y-89389046D01*
X56595048Y-89400626D01*
X56508928Y-89512861D01*
X56500741Y-89527042D01*
X56446604Y-89657739D01*
X56442366Y-89673558D01*
X56428538Y-89778590D01*
X56428000Y-89786799D01*
X56428000Y-90103885D01*
X56432475Y-90119124D01*
X56433865Y-90120329D01*
X56441548Y-90122000D01*
X57327000Y-90122000D01*
X57395121Y-90142002D01*
X57441614Y-90195658D01*
X57453000Y-90248000D01*
X57453000Y-90346000D01*
X57432998Y-90414121D01*
X57379342Y-90460614D01*
X57327000Y-90472000D01*
X56446116Y-90472000D01*
X56430877Y-90476475D01*
X56429672Y-90477865D01*
X56428001Y-90485548D01*
X56428001Y-90807199D01*
X56428539Y-90815411D01*
X56442366Y-90920444D01*
X56446604Y-90936259D01*
X56500741Y-91066959D01*
X56508930Y-91081142D01*
X56595046Y-91193372D01*
X56606626Y-91204952D01*
X56718861Y-91291072D01*
X56733044Y-91299261D01*
X56772337Y-91315536D01*
X56827619Y-91360084D01*
X56850040Y-91427447D01*
X56832482Y-91496238D01*
X56780521Y-91544617D01*
X56737728Y-91557208D01*
X56732379Y-91557789D01*
X56717133Y-91561414D01*
X56598823Y-91605767D01*
X56583237Y-91614299D01*
X56552254Y-91637520D01*
X56485747Y-91662368D01*
X56416365Y-91647315D01*
X56363586Y-91592225D01*
X56323111Y-91509787D01*
X56311151Y-91493082D01*
X56243428Y-91425477D01*
X56226700Y-91413545D01*
X56140162Y-91371245D01*
X56121694Y-91365537D01*
X56067703Y-91357660D01*
X56058604Y-91357000D01*
X55984895Y-91357000D01*
X55916774Y-91336998D01*
X55870281Y-91283342D01*
X55860177Y-91213068D01*
X55889671Y-91148488D01*
X55908191Y-91131038D01*
X55977372Y-91077954D01*
X55988952Y-91066374D01*
X56075072Y-90954139D01*
X56083259Y-90939958D01*
X56137396Y-90809261D01*
X56141634Y-90793442D01*
X56155462Y-90688410D01*
X56156000Y-90680201D01*
X56156000Y-90363115D01*
X56151525Y-90347876D01*
X56150135Y-90346671D01*
X56142452Y-90345000D01*
X55257000Y-90345000D01*
X55188879Y-90324998D01*
X55142386Y-90271342D01*
X55131000Y-90219000D01*
X55131000Y-90121000D01*
X55151002Y-90052879D01*
X55204658Y-90006386D01*
X55257000Y-89995000D01*
X56137884Y-89995000D01*
X56153123Y-89990525D01*
X56154328Y-89989135D01*
X56155999Y-89981452D01*
X56155999Y-89659801D01*
X56155461Y-89651589D01*
X56141634Y-89546556D01*
X56137396Y-89530741D01*
X56083259Y-89400041D01*
X56075070Y-89385858D01*
X55988953Y-89273628D01*
X55974008Y-89258682D01*
X55939985Y-89196369D01*
X55945051Y-89125554D01*
X55987599Y-89068719D01*
X56014884Y-89053182D01*
X56117841Y-89010536D01*
X56243282Y-88914282D01*
X56339536Y-88788841D01*
X56398863Y-88645614D01*
X56443410Y-88590334D01*
X56510774Y-88567913D01*
X56579565Y-88585471D01*
G37*
%TD.AperFunction*%
%TA.AperFunction,Conductor*%
G36*
X58292023Y-90871471D02*
G01*
X58340401Y-90923433D01*
X58344135Y-90931609D01*
X58403464Y-91074841D01*
X58499718Y-91200282D01*
X58506264Y-91205305D01*
X58625159Y-91296536D01*
X58623065Y-91299265D01*
X58661067Y-91339084D01*
X58675100Y-91396871D01*
X58675100Y-91427298D01*
X58655098Y-91495419D01*
X58601442Y-91541912D01*
X58537140Y-91552292D01*
X58537126Y-91552553D01*
X58535927Y-91552488D01*
X58535481Y-91552560D01*
X58533720Y-91552369D01*
X58526915Y-91552000D01*
X57846234Y-91552000D01*
X57778113Y-91531998D01*
X57731620Y-91478342D01*
X57721516Y-91408068D01*
X57751010Y-91343488D01*
X57798016Y-91309591D01*
X57822959Y-91299259D01*
X57837142Y-91291070D01*
X57949372Y-91204954D01*
X57960952Y-91193374D01*
X58047072Y-91081139D01*
X58055259Y-91066958D01*
X58111320Y-90931615D01*
X58155868Y-90876334D01*
X58223231Y-90853913D01*
X58292023Y-90871471D01*
G37*
%TD.AperFunction*%
%TA.AperFunction,Conductor*%
G36*
X57584012Y-85473674D02*
G01*
X57590595Y-85479803D01*
X57760582Y-85649790D01*
X57768092Y-85659189D01*
X57768476Y-85658862D01*
X57774291Y-85665695D01*
X57779084Y-85673291D01*
X57785815Y-85679236D01*
X57785818Y-85679239D01*
X57818944Y-85708494D01*
X57824632Y-85713840D01*
X57835927Y-85725135D01*
X57839511Y-85727821D01*
X57839518Y-85727827D01*
X57844167Y-85731311D01*
X57852007Y-85737694D01*
X57880329Y-85762707D01*
X57887057Y-85768649D01*
X57895180Y-85772463D01*
X57898135Y-85774404D01*
X57911737Y-85782577D01*
X57914832Y-85784272D01*
X57922013Y-85789653D01*
X57930417Y-85792803D01*
X57930418Y-85792804D01*
X57965798Y-85806067D01*
X57975118Y-85809994D01*
X58009330Y-85826057D01*
X58009332Y-85826058D01*
X58017454Y-85829871D01*
X58026325Y-85831252D01*
X58029714Y-85832288D01*
X58045052Y-85836311D01*
X58048493Y-85837068D01*
X58056899Y-85840219D01*
X58077485Y-85841749D01*
X58103532Y-85843684D01*
X58113580Y-85844838D01*
X58122008Y-85846150D01*
X58122009Y-85846150D01*
X58126825Y-85846900D01*
X58142127Y-85846900D01*
X58151465Y-85847246D01*
X58200557Y-85850894D01*
X58209332Y-85849021D01*
X58218204Y-85848416D01*
X58232567Y-85846900D01*
X58552869Y-85846900D01*
X58620990Y-85866902D01*
X58667483Y-85920558D01*
X58677587Y-85990832D01*
X58648093Y-86055412D01*
X58642950Y-86060936D01*
X58636718Y-86065718D01*
X58540464Y-86191159D01*
X58479956Y-86337238D01*
X58464500Y-86454639D01*
X58464500Y-86458761D01*
X58464501Y-87155977D01*
X58444499Y-87224098D01*
X58390843Y-87270591D01*
X58320570Y-87280695D01*
X58255989Y-87251202D01*
X58238539Y-87232681D01*
X58147954Y-87114628D01*
X58136374Y-87103048D01*
X58024139Y-87016928D01*
X58009958Y-87008741D01*
X57879261Y-86954604D01*
X57863442Y-86950366D01*
X57758410Y-86936538D01*
X57750201Y-86936000D01*
X57658115Y-86936000D01*
X57642876Y-86940475D01*
X57641671Y-86941865D01*
X57640000Y-86949548D01*
X57640000Y-87817885D01*
X57644475Y-87833124D01*
X57645865Y-87834329D01*
X57653548Y-87836000D01*
X58296884Y-87836000D01*
X58312123Y-87831525D01*
X58313328Y-87830135D01*
X58314999Y-87822452D01*
X58314999Y-87499194D01*
X58335001Y-87431073D01*
X58388657Y-87384580D01*
X58458931Y-87374476D01*
X58523511Y-87403970D01*
X58540962Y-87422490D01*
X58636718Y-87547282D01*
X58643264Y-87552305D01*
X58645074Y-87553694D01*
X58762159Y-87643536D01*
X58835016Y-87673714D01*
X58864999Y-87686134D01*
X58920280Y-87730683D01*
X58942701Y-87798046D01*
X58941788Y-87818334D01*
X58938938Y-87840894D01*
X58934825Y-87873455D01*
X58935512Y-87880462D01*
X58935512Y-87880465D01*
X58937971Y-87905546D01*
X58951255Y-88041025D01*
X59004402Y-88200791D01*
X59008049Y-88206813D01*
X59008050Y-88206815D01*
X59071428Y-88311464D01*
X59091624Y-88344812D01*
X59208586Y-88465929D01*
X59214483Y-88469788D01*
X59343577Y-88554266D01*
X59343581Y-88554268D01*
X59349475Y-88558125D01*
X59502915Y-88615188D01*
X59502916Y-88615189D01*
X59507289Y-88616815D01*
X59507003Y-88617583D01*
X59563364Y-88650595D01*
X59595500Y-88713902D01*
X59588309Y-88784534D01*
X59560725Y-88826067D01*
X59202196Y-89184596D01*
X59139884Y-89218622D01*
X59113101Y-89221501D01*
X58888640Y-89221501D01*
X58884556Y-89222039D01*
X58884550Y-89222039D01*
X58779425Y-89235878D01*
X58779423Y-89235878D01*
X58771238Y-89236956D01*
X58625159Y-89297464D01*
X58499718Y-89393718D01*
X58403464Y-89519159D01*
X58347904Y-89653293D01*
X58344138Y-89662385D01*
X58299590Y-89717666D01*
X58232226Y-89740087D01*
X58163435Y-89722529D01*
X58115057Y-89670567D01*
X58111320Y-89662385D01*
X58055259Y-89527041D01*
X58047070Y-89512858D01*
X57960954Y-89400628D01*
X57949374Y-89389048D01*
X57837136Y-89302925D01*
X57835289Y-89301859D01*
X57834043Y-89300552D01*
X57830588Y-89297901D01*
X57831001Y-89297362D01*
X57786296Y-89250475D01*
X57772862Y-89180761D01*
X57799250Y-89114851D01*
X57857083Y-89073670D01*
X57865682Y-89071034D01*
X57879260Y-89067396D01*
X58009959Y-89013259D01*
X58024142Y-89005070D01*
X58136372Y-88918954D01*
X58147952Y-88907374D01*
X58234072Y-88795139D01*
X58242259Y-88780958D01*
X58296396Y-88650261D01*
X58300634Y-88634442D01*
X58314462Y-88529410D01*
X58315000Y-88521201D01*
X58315000Y-88204115D01*
X58310525Y-88188876D01*
X58309135Y-88187671D01*
X58301452Y-88186000D01*
X57416000Y-88186000D01*
X57347879Y-88165998D01*
X57301386Y-88112342D01*
X57290000Y-88060000D01*
X57290000Y-86954116D01*
X57285525Y-86938877D01*
X57284135Y-86937672D01*
X57276452Y-86936001D01*
X57179801Y-86936001D01*
X57171589Y-86936539D01*
X57066556Y-86950366D01*
X57050741Y-86954604D01*
X56920041Y-87008741D01*
X56905858Y-87016930D01*
X56793628Y-87103046D01*
X56782048Y-87114626D01*
X56695928Y-87226861D01*
X56687741Y-87241042D01*
X56631680Y-87376385D01*
X56587132Y-87431666D01*
X56519769Y-87454087D01*
X56450977Y-87436529D01*
X56402599Y-87384567D01*
X56398862Y-87376385D01*
X56339536Y-87233159D01*
X56302390Y-87184749D01*
X56276790Y-87118528D01*
X56291055Y-87048979D01*
X56313258Y-87018950D01*
X56580790Y-86751418D01*
X56590189Y-86743908D01*
X56589862Y-86743524D01*
X56596695Y-86737709D01*
X56604291Y-86732916D01*
X56610236Y-86726185D01*
X56610239Y-86726182D01*
X56639494Y-86693056D01*
X56644840Y-86687368D01*
X56656136Y-86676072D01*
X56658824Y-86672486D01*
X56658828Y-86672481D01*
X56662311Y-86667834D01*
X56668692Y-86659996D01*
X56693708Y-86631670D01*
X56699649Y-86624943D01*
X56703464Y-86616818D01*
X56705403Y-86613866D01*
X56713576Y-86600263D01*
X56715269Y-86597171D01*
X56720653Y-86589987D01*
X56737071Y-86546193D01*
X56740998Y-86536874D01*
X56757057Y-86502670D01*
X56757057Y-86502668D01*
X56760871Y-86494546D01*
X56762252Y-86485677D01*
X56763286Y-86482295D01*
X56767315Y-86466939D01*
X56768070Y-86463503D01*
X56771220Y-86455101D01*
X56774686Y-86408454D01*
X56775840Y-86398406D01*
X56777150Y-86389991D01*
X56777900Y-86385175D01*
X56777900Y-86369886D01*
X56778246Y-86360549D01*
X56781230Y-86320394D01*
X56781230Y-86320393D01*
X56781895Y-86311443D01*
X56780020Y-86302661D01*
X56779415Y-86293790D01*
X56777900Y-86279432D01*
X56777900Y-86033500D01*
X56797902Y-85965379D01*
X56851558Y-85918886D01*
X56903900Y-85907500D01*
X57058218Y-85907500D01*
X57062768Y-85906830D01*
X57062771Y-85906830D01*
X57117426Y-85898784D01*
X57117427Y-85898784D01*
X57127112Y-85897358D01*
X57198405Y-85862355D01*
X57222507Y-85850522D01*
X57222509Y-85850521D01*
X57231855Y-85845932D01*
X57297574Y-85780098D01*
X57306935Y-85770721D01*
X57306935Y-85770720D01*
X57314293Y-85763350D01*
X57321378Y-85748857D01*
X57346205Y-85698065D01*
X57365536Y-85658518D01*
X57369984Y-85628027D01*
X57374840Y-85594744D01*
X57374841Y-85594734D01*
X57375500Y-85590218D01*
X57375500Y-85568898D01*
X57395502Y-85500777D01*
X57449158Y-85454284D01*
X57519432Y-85444180D01*
X57584012Y-85473674D01*
G37*
%TD.AperFunction*%
%TA.AperFunction,Conductor*%
G36*
X66266621Y-77205502D02*
G01*
X66313114Y-77259158D01*
X66324500Y-77311500D01*
X66324500Y-77723363D01*
X66304498Y-77791484D01*
X66250842Y-77837977D01*
X66180568Y-77848081D01*
X66115988Y-77818587D01*
X66085397Y-77778894D01*
X66040522Y-77687493D01*
X66040521Y-77687491D01*
X66035932Y-77678145D01*
X65953350Y-77595707D01*
X65848518Y-77544464D01*
X65818027Y-77540016D01*
X65784744Y-77535160D01*
X65784740Y-77535160D01*
X65780218Y-77534500D01*
X64013782Y-77534500D01*
X64009232Y-77535170D01*
X64009229Y-77535170D01*
X63954574Y-77543216D01*
X63954573Y-77543216D01*
X63944888Y-77544642D01*
X63932291Y-77550827D01*
X63849493Y-77591478D01*
X63849491Y-77591479D01*
X63840145Y-77596068D01*
X63757707Y-77678650D01*
X63706464Y-77783482D01*
X63696500Y-77851782D01*
X63696500Y-79618218D01*
X63697170Y-79622768D01*
X63697170Y-79622771D01*
X63700038Y-79642252D01*
X63706642Y-79687112D01*
X63758068Y-79791855D01*
X63840650Y-79874293D01*
X63945482Y-79925536D01*
X63975973Y-79929984D01*
X64009256Y-79934840D01*
X64009260Y-79934840D01*
X64013782Y-79935500D01*
X64353570Y-79935500D01*
X64421691Y-79955502D01*
X64468184Y-80009158D01*
X64478288Y-80079432D01*
X64448794Y-80144012D01*
X64397180Y-80179712D01*
X64388382Y-80182958D01*
X64377957Y-80186804D01*
X64188341Y-80299614D01*
X64022457Y-80445090D01*
X64018878Y-80449630D01*
X64018877Y-80449631D01*
X63959379Y-80525105D01*
X63901499Y-80566219D01*
X63860429Y-80573100D01*
X63242000Y-80573100D01*
X63173879Y-80553098D01*
X63127386Y-80499442D01*
X63116000Y-80447100D01*
X63116000Y-80319115D01*
X63111525Y-80303876D01*
X63110135Y-80302671D01*
X63102452Y-80301000D01*
X61534116Y-80301000D01*
X61518877Y-80305475D01*
X61517672Y-80306865D01*
X61516001Y-80314548D01*
X61516001Y-80447100D01*
X61495999Y-80515221D01*
X61442343Y-80561714D01*
X61390001Y-80573100D01*
X61184476Y-80573100D01*
X61116355Y-80553098D01*
X61071373Y-80502631D01*
X61059522Y-80478493D01*
X61059521Y-80478491D01*
X61054932Y-80469145D01*
X60972350Y-80386707D01*
X60867518Y-80335464D01*
X60837027Y-80331016D01*
X60803744Y-80326160D01*
X60803740Y-80326160D01*
X60799218Y-80325500D01*
X59832782Y-80325500D01*
X59828232Y-80326170D01*
X59828229Y-80326170D01*
X59773574Y-80334216D01*
X59773573Y-80334216D01*
X59763888Y-80335642D01*
X59713992Y-80360140D01*
X59668493Y-80382478D01*
X59668491Y-80382479D01*
X59659145Y-80387068D01*
X59651787Y-80394438D01*
X59651788Y-80394438D01*
X59605030Y-80441278D01*
X59576707Y-80469650D01*
X59572134Y-80479006D01*
X59572133Y-80479007D01*
X59556270Y-80511460D01*
X59525464Y-80574482D01*
X59515500Y-80642782D01*
X59515500Y-81509218D01*
X59516170Y-81513768D01*
X59516170Y-81513771D01*
X59521612Y-81550738D01*
X59525642Y-81578112D01*
X59550140Y-81628008D01*
X59557351Y-81642695D01*
X59577068Y-81682855D01*
X59659650Y-81765293D01*
X59669006Y-81769866D01*
X59669007Y-81769867D01*
X59701460Y-81785730D01*
X59764482Y-81816536D01*
X59794973Y-81820984D01*
X59828256Y-81825840D01*
X59828260Y-81825840D01*
X59832782Y-81826500D01*
X60729602Y-81826500D01*
X60797723Y-81846502D01*
X60844216Y-81900158D01*
X60854320Y-81970432D01*
X60824826Y-82035012D01*
X60818697Y-82041595D01*
X59928697Y-82931595D01*
X59866385Y-82965621D01*
X59839602Y-82968500D01*
X59089056Y-82968501D01*
X59025640Y-82968501D01*
X59021556Y-82969039D01*
X59021550Y-82969039D01*
X58916425Y-82982878D01*
X58916423Y-82982878D01*
X58908238Y-82983956D01*
X58762159Y-83044464D01*
X58636718Y-83140718D01*
X58540464Y-83266159D01*
X58479956Y-83412238D01*
X58478878Y-83420426D01*
X58465862Y-83519297D01*
X58464500Y-83529639D01*
X58464501Y-84233360D01*
X58465039Y-84237444D01*
X58465039Y-84237450D01*
X58467093Y-84253051D01*
X58479956Y-84350762D01*
X58540464Y-84496841D01*
X58636718Y-84622282D01*
X58642248Y-84626525D01*
X58675990Y-84688317D01*
X58670925Y-84759132D01*
X58628378Y-84815968D01*
X58561858Y-84840779D01*
X58552869Y-84841100D01*
X58426498Y-84841100D01*
X58358377Y-84821098D01*
X58337403Y-84804195D01*
X57784418Y-84251210D01*
X57776908Y-84241811D01*
X57776524Y-84242138D01*
X57770709Y-84235305D01*
X57765916Y-84227709D01*
X57759185Y-84221764D01*
X57759182Y-84221761D01*
X57726056Y-84192506D01*
X57720368Y-84187160D01*
X57709072Y-84175864D01*
X57705486Y-84173176D01*
X57705481Y-84173172D01*
X57700834Y-84169689D01*
X57692996Y-84163308D01*
X57664670Y-84138292D01*
X57657943Y-84132351D01*
X57649818Y-84128536D01*
X57646866Y-84126597D01*
X57633263Y-84118423D01*
X57630168Y-84116728D01*
X57622987Y-84111347D01*
X57579203Y-84094933D01*
X57569882Y-84091006D01*
X57535670Y-84074943D01*
X57535668Y-84074942D01*
X57527546Y-84071129D01*
X57518675Y-84069748D01*
X57515286Y-84068712D01*
X57499952Y-84064690D01*
X57496508Y-84063933D01*
X57488101Y-84060781D01*
X57479150Y-84060116D01*
X57474443Y-84059081D01*
X57412206Y-84024917D01*
X57378320Y-83962529D01*
X57375500Y-83936020D01*
X57375500Y-83523782D01*
X57365358Y-83454888D01*
X57334151Y-83391326D01*
X57318522Y-83359493D01*
X57318521Y-83359491D01*
X57313932Y-83350145D01*
X57231350Y-83267707D01*
X57214782Y-83259608D01*
X57144218Y-83225116D01*
X57126518Y-83216464D01*
X57116838Y-83215052D01*
X57107501Y-83212166D01*
X57108399Y-83209260D01*
X57058438Y-83186323D01*
X57020174Y-83126520D01*
X57015551Y-83081962D01*
X57015955Y-83079088D01*
X57016249Y-83058000D01*
X57000657Y-82918988D01*
X56998266Y-82897672D01*
X56998265Y-82897669D01*
X56997481Y-82890676D01*
X56942108Y-82731668D01*
X56852884Y-82588879D01*
X56844723Y-82580661D01*
X56739205Y-82474403D01*
X56739201Y-82474400D01*
X56734242Y-82469406D01*
X56725321Y-82463744D01*
X56660976Y-82422910D01*
X56592079Y-82379187D01*
X56433462Y-82322706D01*
X56426474Y-82321873D01*
X56426471Y-82321872D01*
X56333300Y-82310762D01*
X56266273Y-82302769D01*
X56259270Y-82303505D01*
X56259269Y-82303505D01*
X56213712Y-82308293D01*
X56098821Y-82320369D01*
X56092155Y-82322638D01*
X56092152Y-82322639D01*
X55946098Y-82372360D01*
X55946095Y-82372361D01*
X55939431Y-82374630D01*
X55933436Y-82378318D01*
X55933432Y-82378320D01*
X55802021Y-82459165D01*
X55802019Y-82459167D01*
X55796022Y-82462856D01*
X55675724Y-82580661D01*
X55584515Y-82722190D01*
X55526927Y-82880409D01*
X55505825Y-83047455D01*
X55506512Y-83054462D01*
X55506512Y-83054465D01*
X55509605Y-83086008D01*
X55496345Y-83155755D01*
X55447482Y-83207262D01*
X55427748Y-83215926D01*
X55422888Y-83216642D01*
X55372992Y-83241140D01*
X55327493Y-83263478D01*
X55327491Y-83263479D01*
X55318145Y-83268068D01*
X55235707Y-83350650D01*
X55231134Y-83360006D01*
X55227597Y-83364964D01*
X55171756Y-83408808D01*
X55101076Y-83415501D01*
X55037997Y-83382919D01*
X55022566Y-83365143D01*
X55018523Y-83359495D01*
X55013932Y-83350145D01*
X54931350Y-83267707D01*
X54914782Y-83259608D01*
X54844218Y-83225116D01*
X54826518Y-83216464D01*
X54792320Y-83211475D01*
X54762744Y-83207160D01*
X54762740Y-83207160D01*
X54758218Y-83206500D01*
X54603900Y-83206500D01*
X54535779Y-83186498D01*
X54489286Y-83132842D01*
X54477900Y-83080500D01*
X54477900Y-79932885D01*
X61516000Y-79932885D01*
X61520475Y-79948124D01*
X61521865Y-79949329D01*
X61529548Y-79951000D01*
X62122885Y-79951000D01*
X62138124Y-79946525D01*
X62139329Y-79945135D01*
X62141000Y-79937452D01*
X62141000Y-79932885D01*
X62491000Y-79932885D01*
X62495475Y-79948124D01*
X62496865Y-79949329D01*
X62504548Y-79951000D01*
X63097884Y-79951000D01*
X63113123Y-79946525D01*
X63114328Y-79945135D01*
X63115999Y-79937452D01*
X63115999Y-79697432D01*
X63115328Y-79688266D01*
X63107300Y-79633722D01*
X63101557Y-79615241D01*
X63059111Y-79528787D01*
X63047151Y-79512082D01*
X62979428Y-79444477D01*
X62962700Y-79432545D01*
X62876162Y-79390245D01*
X62857694Y-79384537D01*
X62803703Y-79376660D01*
X62794604Y-79376000D01*
X62509115Y-79376000D01*
X62493876Y-79380475D01*
X62492671Y-79381865D01*
X62491000Y-79389548D01*
X62491000Y-79932885D01*
X62141000Y-79932885D01*
X62141000Y-79394116D01*
X62136525Y-79378877D01*
X62135135Y-79377672D01*
X62127452Y-79376001D01*
X61837432Y-79376001D01*
X61828266Y-79376672D01*
X61773722Y-79384700D01*
X61755241Y-79390443D01*
X61668787Y-79432889D01*
X61652082Y-79444849D01*
X61584477Y-79512572D01*
X61572545Y-79529300D01*
X61530245Y-79615838D01*
X61524537Y-79634306D01*
X61516660Y-79688297D01*
X61516000Y-79697396D01*
X61516000Y-79932885D01*
X54477900Y-79932885D01*
X54477900Y-79733500D01*
X54497902Y-79665379D01*
X54551558Y-79618886D01*
X54603900Y-79607500D01*
X55908218Y-79607500D01*
X55912768Y-79606830D01*
X55912771Y-79606830D01*
X55967426Y-79598784D01*
X55967427Y-79598784D01*
X55977112Y-79597358D01*
X56071804Y-79550867D01*
X56072507Y-79550522D01*
X56072509Y-79550521D01*
X56081855Y-79545932D01*
X56164293Y-79463350D01*
X56173337Y-79444849D01*
X56199931Y-79390443D01*
X56215536Y-79358518D01*
X56225500Y-79290218D01*
X56225500Y-77311500D01*
X56245502Y-77243379D01*
X56299158Y-77196886D01*
X56351500Y-77185500D01*
X66198500Y-77185500D01*
X66266621Y-77205502D01*
G37*
%TD.AperFunction*%
%TD*%
M02*
