%TF.GenerationSoftware,KiCad,Pcbnew,6.0.6-1.fc35*%
%TF.CreationDate,2022-07-22T15:55:32+02:00*%
%TF.ProjectId,NE555_OC,4e453535-355f-44f4-932e-6b696361645f,rev?*%
%TF.SameCoordinates,Original*%
%TF.FileFunction,Copper,L2,Bot*%
%TF.FilePolarity,Positive*%
%FSLAX46Y46*%
G04 Gerber Fmt 4.6, Leading zero omitted, Abs format (unit mm)*
G04 Created by KiCad (PCBNEW 6.0.6-1.fc35) date 2022-07-22 15:55:32*
%MOMM*%
%LPD*%
G01*
G04 APERTURE LIST*
%TA.AperFunction,ComponentPad*%
%ADD10R,1.700000X1.700000*%
%TD*%
%TA.AperFunction,ComponentPad*%
%ADD11O,1.700000X1.700000*%
%TD*%
%TA.AperFunction,ComponentPad*%
%ADD12C,5.600000*%
%TD*%
%TA.AperFunction,ComponentPad*%
%ADD13R,1.600000X1.600000*%
%TD*%
%TA.AperFunction,ComponentPad*%
%ADD14C,1.600000*%
%TD*%
%TA.AperFunction,ViaPad*%
%ADD15C,0.800000*%
%TD*%
%TA.AperFunction,Conductor*%
%ADD16C,0.406400*%
%TD*%
%TA.AperFunction,Conductor*%
%ADD17C,0.304800*%
%TD*%
G04 APERTURE END LIST*
D10*
%TO.P,J2,1,Pin_1*%
%TO.N,+24V*%
X64897000Y-78735000D03*
D11*
%TO.P,J2,2,Pin_2*%
%TO.N,Net-(D2-Pad2)*%
X64897000Y-81275000D03*
%TD*%
D10*
%TO.P,J1,1,Pin_1*%
%TO.N,+24V*%
X49911000Y-88514000D03*
D11*
%TO.P,J1,2,Pin_2*%
%TO.N,GND*%
X49911000Y-91054000D03*
%TD*%
D12*
%TO.P,ref1,1*%
%TO.N,N/C*%
X46990000Y-80010000D03*
%TD*%
D13*
%TO.P,C4,1*%
%TO.N,+24V*%
X53136800Y-92848421D03*
D14*
%TO.P,C4,2*%
%TO.N,GND*%
X53136800Y-95348421D03*
%TD*%
D15*
%TO.N,+24V*%
X56261000Y-83058000D03*
%TO.N,GND*%
X56261000Y-90297000D03*
X58928000Y-81026000D03*
X55245000Y-94107000D03*
%TO.N,+5V*%
X54305200Y-86614000D03*
X62738000Y-90297000D03*
X60579000Y-95504000D03*
%TO.N,Net-(D1-Pad1)*%
X59690000Y-94742000D03*
X59690000Y-87884000D03*
%TD*%
D16*
%TO.N,+24V*%
X53136800Y-92848421D02*
X53136800Y-91744800D01*
X53136800Y-91744800D02*
X53136800Y-86182200D01*
X51640700Y-90248700D02*
X53136800Y-91744800D01*
X56261000Y-81153000D02*
X58679000Y-78735000D01*
X56261000Y-83058000D02*
X56261000Y-81153000D01*
X53136800Y-86182200D02*
X56261000Y-83058000D01*
X51640700Y-90243700D02*
X49911000Y-88514000D01*
X51640700Y-90243700D02*
X51640700Y-90248700D01*
X58679000Y-78735000D02*
X64897000Y-78735000D01*
D17*
%TO.N,+5V*%
X60579000Y-92456000D02*
X62738000Y-90297000D01*
X62738000Y-90297000D02*
X62738000Y-89509600D01*
X60579000Y-95504000D02*
X60579000Y-92456000D01*
X62738000Y-89509600D02*
X59842400Y-86614000D01*
X59842400Y-86614000D02*
X54305200Y-86614000D01*
%TO.N,Net-(D1-Pad1)*%
X59690000Y-94742000D02*
X59690000Y-87884000D01*
%TD*%
%TA.AperFunction,Conductor*%
%TO.N,GND*%
G36*
X66266621Y-77205502D02*
G01*
X66313114Y-77259158D01*
X66324500Y-77311500D01*
X66324500Y-77723363D01*
X66304498Y-77791484D01*
X66250842Y-77837977D01*
X66180568Y-77848081D01*
X66115988Y-77818587D01*
X66085397Y-77778894D01*
X66040522Y-77687493D01*
X66040521Y-77687491D01*
X66035932Y-77678145D01*
X65953350Y-77595707D01*
X65848518Y-77544464D01*
X65818027Y-77540016D01*
X65784744Y-77535160D01*
X65784740Y-77535160D01*
X65780218Y-77534500D01*
X64013782Y-77534500D01*
X64009232Y-77535170D01*
X64009229Y-77535170D01*
X63954574Y-77543216D01*
X63954573Y-77543216D01*
X63944888Y-77544642D01*
X63932291Y-77550827D01*
X63849493Y-77591478D01*
X63849491Y-77591479D01*
X63840145Y-77596068D01*
X63757707Y-77678650D01*
X63706464Y-77783482D01*
X63696500Y-77851782D01*
X63696500Y-78055300D01*
X63676498Y-78123421D01*
X63622842Y-78169914D01*
X63570500Y-78181300D01*
X58694045Y-78181300D01*
X58688768Y-78181189D01*
X58685951Y-78181071D01*
X58626402Y-78178575D01*
X58608561Y-78182760D01*
X58583757Y-78188577D01*
X58572085Y-78190740D01*
X58559472Y-78192468D01*
X58528699Y-78196683D01*
X58520812Y-78200096D01*
X58520809Y-78200097D01*
X58514766Y-78202712D01*
X58493498Y-78209746D01*
X58487072Y-78211253D01*
X58487066Y-78211255D01*
X58478706Y-78213216D01*
X58440314Y-78234322D01*
X58429669Y-78239537D01*
X58389472Y-78256932D01*
X58382794Y-78262340D01*
X58377674Y-78266486D01*
X58359078Y-78278983D01*
X58345766Y-78286301D01*
X58337601Y-78293348D01*
X58312893Y-78318056D01*
X58303092Y-78326881D01*
X58271575Y-78352403D01*
X58260577Y-78367879D01*
X58246970Y-78383979D01*
X55880130Y-80750820D01*
X55876321Y-80754473D01*
X55830356Y-80796740D01*
X55807273Y-80833969D01*
X55800559Y-80843739D01*
X55779266Y-80871790D01*
X55779264Y-80871793D01*
X55774074Y-80878631D01*
X55770913Y-80886616D01*
X55768486Y-80892746D01*
X55758420Y-80912759D01*
X55750414Y-80925672D01*
X55748018Y-80933918D01*
X55748016Y-80933923D01*
X55738191Y-80967740D01*
X55734348Y-80978966D01*
X55718228Y-81019682D01*
X55717331Y-81028219D01*
X55716640Y-81034789D01*
X55712328Y-81056763D01*
X55708090Y-81071353D01*
X55707300Y-81082110D01*
X55707300Y-81117046D01*
X55706610Y-81130216D01*
X55702370Y-81170556D01*
X55703803Y-81179028D01*
X55703803Y-81179029D01*
X55705535Y-81189268D01*
X55707300Y-81210282D01*
X55707300Y-82498321D01*
X55687298Y-82566442D01*
X55680068Y-82576407D01*
X55675724Y-82580661D01*
X55671906Y-82586586D01*
X55671904Y-82586588D01*
X55630793Y-82650380D01*
X55584515Y-82722190D01*
X55526927Y-82880409D01*
X55526044Y-82887398D01*
X55526042Y-82887407D01*
X55513736Y-82984822D01*
X55485355Y-83049898D01*
X55477825Y-83058125D01*
X52755930Y-85780020D01*
X52752121Y-85783673D01*
X52706156Y-85825940D01*
X52683073Y-85863169D01*
X52676364Y-85872932D01*
X52667028Y-85885231D01*
X52655066Y-85900990D01*
X52655064Y-85900993D01*
X52649874Y-85907831D01*
X52646713Y-85915816D01*
X52644286Y-85921946D01*
X52634220Y-85941959D01*
X52626214Y-85954872D01*
X52623818Y-85963118D01*
X52623816Y-85963123D01*
X52613991Y-85996940D01*
X52610148Y-86008166D01*
X52594028Y-86048882D01*
X52593131Y-86057419D01*
X52592440Y-86063989D01*
X52588128Y-86085963D01*
X52583890Y-86100553D01*
X52583100Y-86111310D01*
X52583100Y-86146246D01*
X52582410Y-86159416D01*
X52578170Y-86199756D01*
X52579603Y-86208228D01*
X52579603Y-86208229D01*
X52581335Y-86218468D01*
X52583100Y-86239482D01*
X52583100Y-90103860D01*
X52563098Y-90171981D01*
X52509442Y-90218474D01*
X52439168Y-90228578D01*
X52374588Y-90199084D01*
X52368005Y-90192955D01*
X52103445Y-89928395D01*
X52091213Y-89913767D01*
X52089399Y-89910467D01*
X52082352Y-89902302D01*
X52057648Y-89877598D01*
X52048823Y-89867797D01*
X52028705Y-89842953D01*
X52028704Y-89842952D01*
X52023297Y-89836275D01*
X52016295Y-89831299D01*
X52016293Y-89831297D01*
X52007824Y-89825279D01*
X51991718Y-89811668D01*
X51148405Y-88968355D01*
X51114379Y-88906043D01*
X51111500Y-88879260D01*
X51111500Y-87630782D01*
X51102871Y-87572162D01*
X51102784Y-87571574D01*
X51102784Y-87571573D01*
X51101358Y-87561888D01*
X51049932Y-87457145D01*
X50967350Y-87374707D01*
X50954540Y-87368445D01*
X50910289Y-87346815D01*
X50862518Y-87323464D01*
X50832027Y-87319016D01*
X50798744Y-87314160D01*
X50798740Y-87314160D01*
X50794218Y-87313500D01*
X49027782Y-87313500D01*
X49023232Y-87314170D01*
X49023229Y-87314170D01*
X48968574Y-87322216D01*
X48968573Y-87322216D01*
X48958888Y-87323642D01*
X48916690Y-87344360D01*
X48863493Y-87370478D01*
X48863491Y-87370479D01*
X48854145Y-87375068D01*
X48771707Y-87457650D01*
X48720464Y-87562482D01*
X48710500Y-87630782D01*
X48710500Y-89397218D01*
X48711170Y-89401768D01*
X48711170Y-89401771D01*
X48719216Y-89456426D01*
X48720642Y-89466112D01*
X48772068Y-89570855D01*
X48854650Y-89653293D01*
X48959482Y-89704536D01*
X48989973Y-89708984D01*
X49023256Y-89713840D01*
X49023260Y-89713840D01*
X49027782Y-89714500D01*
X49369015Y-89714500D01*
X49437136Y-89734502D01*
X49483629Y-89788158D01*
X49493733Y-89858432D01*
X49464239Y-89923012D01*
X49412625Y-89958712D01*
X49397592Y-89964258D01*
X49387210Y-89969210D01*
X49207604Y-90076064D01*
X49198292Y-90082829D01*
X49041163Y-90220629D01*
X49033246Y-90228972D01*
X48903862Y-90393095D01*
X48897591Y-90402751D01*
X48800287Y-90587696D01*
X48795881Y-90598333D01*
X48733908Y-90797917D01*
X48731515Y-90809173D01*
X48725380Y-90861012D01*
X48727822Y-90875431D01*
X48740564Y-90879000D01*
X51081946Y-90879000D01*
X51096491Y-90874729D01*
X51098554Y-90862595D01*
X51096490Y-90840134D01*
X51094393Y-90828823D01*
X51090576Y-90815288D01*
X51091336Y-90744295D01*
X51130356Y-90684983D01*
X51195249Y-90656183D01*
X51265411Y-90667038D01*
X51300940Y-90691990D01*
X52165341Y-91556391D01*
X52199367Y-91618703D01*
X52194302Y-91689518D01*
X52151755Y-91746354D01*
X52147743Y-91748812D01*
X52147761Y-91748837D01*
X52139293Y-91754899D01*
X52129945Y-91759489D01*
X52047507Y-91842071D01*
X51996264Y-91946903D01*
X51986300Y-92015203D01*
X51986300Y-93681639D01*
X51986970Y-93686189D01*
X51986970Y-93686192D01*
X51995016Y-93740847D01*
X51996442Y-93750533D01*
X52047868Y-93855276D01*
X52130450Y-93937714D01*
X52235282Y-93988957D01*
X52265773Y-93993405D01*
X52299056Y-93998261D01*
X52299060Y-93998261D01*
X52303582Y-93998921D01*
X52766391Y-93998921D01*
X52834512Y-94018923D01*
X52881005Y-94072579D01*
X52891109Y-94142853D01*
X52861615Y-94207433D01*
X52810002Y-94243133D01*
X52645007Y-94304003D01*
X52634629Y-94308953D01*
X52464612Y-94410102D01*
X52458902Y-94419105D01*
X52464734Y-94428867D01*
X53123989Y-95088123D01*
X53137932Y-95095736D01*
X53139766Y-95095605D01*
X53146380Y-95091354D01*
X53806038Y-94431695D01*
X53812795Y-94419320D01*
X53806765Y-94411264D01*
X53666009Y-94322455D01*
X53655765Y-94317235D01*
X53467065Y-94241951D01*
X53411206Y-94198130D01*
X53387906Y-94131066D01*
X53404562Y-94062051D01*
X53455886Y-94012996D01*
X53513756Y-93998921D01*
X53970018Y-93998921D01*
X53974568Y-93998251D01*
X53974571Y-93998251D01*
X54029226Y-93990205D01*
X54029227Y-93990205D01*
X54038912Y-93988779D01*
X54133604Y-93942288D01*
X54134307Y-93941943D01*
X54134309Y-93941942D01*
X54143655Y-93937353D01*
X54226093Y-93854771D01*
X54277336Y-93749939D01*
X54287300Y-93681639D01*
X54287300Y-92015203D01*
X54278671Y-91956583D01*
X54278584Y-91955995D01*
X54278584Y-91955994D01*
X54277158Y-91946309D01*
X54225732Y-91841566D01*
X54143150Y-91759128D01*
X54038318Y-91707885D01*
X54007827Y-91703437D01*
X53974544Y-91698581D01*
X53974540Y-91698581D01*
X53970018Y-91697921D01*
X53816500Y-91697921D01*
X53748379Y-91677919D01*
X53701886Y-91624263D01*
X53690500Y-91571921D01*
X53690500Y-87341741D01*
X53710502Y-87273620D01*
X53764158Y-87227127D01*
X53834432Y-87217023D01*
X53885491Y-87236308D01*
X53964675Y-87288125D01*
X54122489Y-87346815D01*
X54129470Y-87347746D01*
X54129472Y-87347747D01*
X54175012Y-87353823D01*
X54289383Y-87369083D01*
X54296394Y-87368445D01*
X54296398Y-87368445D01*
X54450043Y-87354462D01*
X54457064Y-87353823D01*
X54463766Y-87351645D01*
X54463768Y-87351645D01*
X54610498Y-87303970D01*
X54610501Y-87303969D01*
X54617197Y-87301793D01*
X54761823Y-87215578D01*
X54766917Y-87210727D01*
X54766921Y-87210724D01*
X54828950Y-87151654D01*
X54892075Y-87119162D01*
X54915842Y-87116900D01*
X59091864Y-87116900D01*
X59159985Y-87136902D01*
X59206478Y-87190558D01*
X59216582Y-87260832D01*
X59187088Y-87325412D01*
X59180022Y-87332923D01*
X59109756Y-87401733D01*
X59104724Y-87406661D01*
X59013515Y-87548190D01*
X59011105Y-87554810D01*
X59011104Y-87554813D01*
X58985111Y-87626229D01*
X58955927Y-87706409D01*
X58934825Y-87873455D01*
X58951255Y-88041025D01*
X59004402Y-88200791D01*
X59091624Y-88344812D01*
X59120122Y-88374322D01*
X59151737Y-88407061D01*
X59184669Y-88469958D01*
X59187100Y-88494588D01*
X59187100Y-94131027D01*
X59167098Y-94199148D01*
X59149258Y-94221050D01*
X59126708Y-94243133D01*
X59104724Y-94264661D01*
X59013515Y-94406190D01*
X59011105Y-94412810D01*
X59011104Y-94412813D01*
X58984721Y-94485299D01*
X58955927Y-94564409D01*
X58934825Y-94731455D01*
X58935512Y-94738462D01*
X58935512Y-94738465D01*
X58944399Y-94829104D01*
X58951255Y-94899025D01*
X59004402Y-95058791D01*
X59008049Y-95064813D01*
X59008050Y-95064815D01*
X59072778Y-95171693D01*
X59091624Y-95202812D01*
X59208586Y-95323929D01*
X59214483Y-95327788D01*
X59343577Y-95412266D01*
X59343581Y-95412268D01*
X59349475Y-95416125D01*
X59507289Y-95474815D01*
X59514270Y-95475746D01*
X59514272Y-95475747D01*
X59566424Y-95482705D01*
X59674183Y-95497083D01*
X59681194Y-95496445D01*
X59681197Y-95496445D01*
X59691330Y-95495522D01*
X59698245Y-95494893D01*
X59767898Y-95508638D01*
X59819063Y-95557859D01*
X59835064Y-95608078D01*
X59840255Y-95661025D01*
X59893402Y-95820791D01*
X59897049Y-95826813D01*
X59897050Y-95826815D01*
X59959905Y-95930600D01*
X59980624Y-95964812D01*
X59985513Y-95969875D01*
X59985514Y-95969876D01*
X60012227Y-95997538D01*
X60097586Y-96085929D01*
X60103483Y-96089788D01*
X60232577Y-96174266D01*
X60232581Y-96174268D01*
X60238475Y-96178125D01*
X60396289Y-96236815D01*
X60403270Y-96237746D01*
X60403272Y-96237747D01*
X60448812Y-96243823D01*
X60563183Y-96259083D01*
X60570194Y-96258445D01*
X60570198Y-96258445D01*
X60723843Y-96244462D01*
X60730864Y-96243823D01*
X60737566Y-96241645D01*
X60737568Y-96241645D01*
X60884298Y-96193970D01*
X60884301Y-96193969D01*
X60890997Y-96191793D01*
X61035623Y-96105578D01*
X61040717Y-96100727D01*
X61040721Y-96100724D01*
X61152454Y-95994322D01*
X61152455Y-95994320D01*
X61157554Y-95989465D01*
X61173934Y-95964812D01*
X61246836Y-95855085D01*
X61250731Y-95849223D01*
X61260614Y-95823207D01*
X61308019Y-95698409D01*
X61310521Y-95691823D01*
X61333955Y-95525088D01*
X61334249Y-95504000D01*
X61331080Y-95475747D01*
X61316266Y-95343672D01*
X61316265Y-95343669D01*
X61315481Y-95336676D01*
X61260108Y-95177668D01*
X61170884Y-95034879D01*
X61118494Y-94982122D01*
X61084687Y-94919691D01*
X61081900Y-94893338D01*
X61081900Y-92716498D01*
X61101902Y-92648377D01*
X61118805Y-92627403D01*
X62659064Y-91087144D01*
X62721376Y-91053118D01*
X62736736Y-91050759D01*
X62889864Y-91036823D01*
X62896566Y-91034645D01*
X62896568Y-91034645D01*
X63043298Y-90986970D01*
X63043301Y-90986969D01*
X63049997Y-90984793D01*
X63194623Y-90898578D01*
X63199717Y-90893727D01*
X63199721Y-90893724D01*
X63311454Y-90787322D01*
X63311455Y-90787320D01*
X63316554Y-90782465D01*
X63409731Y-90642223D01*
X63469521Y-90484823D01*
X63492955Y-90318088D01*
X63493249Y-90297000D01*
X63485619Y-90228972D01*
X63475266Y-90136672D01*
X63475265Y-90136669D01*
X63474481Y-90129676D01*
X63419108Y-89970668D01*
X63329884Y-89827879D01*
X63311407Y-89809272D01*
X63277494Y-89775122D01*
X63243687Y-89712691D01*
X63240900Y-89686338D01*
X63240900Y-89580046D01*
X63242235Y-89568089D01*
X63241734Y-89568049D01*
X63242454Y-89559103D01*
X63244435Y-89550347D01*
X63241142Y-89497268D01*
X63240900Y-89489467D01*
X63240900Y-89473493D01*
X63239439Y-89463296D01*
X63238410Y-89453243D01*
X63236071Y-89415529D01*
X63236071Y-89415527D01*
X63235515Y-89406570D01*
X63232468Y-89398130D01*
X63231754Y-89394683D01*
X63227918Y-89379295D01*
X63226921Y-89375887D01*
X63225649Y-89367001D01*
X63221932Y-89358825D01*
X63206296Y-89324434D01*
X63202483Y-89315069D01*
X63189648Y-89279516D01*
X63186601Y-89271075D01*
X63181304Y-89263824D01*
X63179658Y-89260729D01*
X63171643Y-89247012D01*
X63169743Y-89244041D01*
X63166026Y-89235866D01*
X63135496Y-89200434D01*
X63129208Y-89192515D01*
X63124180Y-89185632D01*
X63124178Y-89185629D01*
X63121305Y-89181697D01*
X63110490Y-89170882D01*
X63104132Y-89164035D01*
X63077852Y-89133536D01*
X63071993Y-89126736D01*
X63064458Y-89121852D01*
X63057754Y-89116004D01*
X63046533Y-89106925D01*
X60247818Y-86308210D01*
X60240308Y-86298811D01*
X60239924Y-86299138D01*
X60234109Y-86292305D01*
X60229316Y-86284709D01*
X60222585Y-86278764D01*
X60222582Y-86278761D01*
X60189456Y-86249506D01*
X60183768Y-86244160D01*
X60172472Y-86232864D01*
X60168886Y-86230176D01*
X60168881Y-86230172D01*
X60164234Y-86226689D01*
X60156396Y-86220308D01*
X60128070Y-86195292D01*
X60121343Y-86189351D01*
X60113218Y-86185536D01*
X60110266Y-86183597D01*
X60096663Y-86175423D01*
X60093568Y-86173728D01*
X60086387Y-86168347D01*
X60042603Y-86151933D01*
X60033282Y-86148006D01*
X59999070Y-86131943D01*
X59999068Y-86131942D01*
X59990946Y-86128129D01*
X59982075Y-86126748D01*
X59978686Y-86125712D01*
X59963348Y-86121689D01*
X59959907Y-86120932D01*
X59951501Y-86117781D01*
X59930915Y-86116251D01*
X59904868Y-86114316D01*
X59894820Y-86113162D01*
X59886392Y-86111850D01*
X59886391Y-86111850D01*
X59881575Y-86111100D01*
X59866273Y-86111100D01*
X59856936Y-86110754D01*
X59849473Y-86110199D01*
X59807843Y-86107106D01*
X59799068Y-86108979D01*
X59790196Y-86109584D01*
X59775833Y-86111100D01*
X54915989Y-86111100D01*
X54847868Y-86091098D01*
X54826583Y-86073884D01*
X54783405Y-86030403D01*
X54783401Y-86030400D01*
X54778442Y-86025406D01*
X54636279Y-85935187D01*
X54477885Y-85878786D01*
X54420422Y-85837092D01*
X54394622Y-85770949D01*
X54408677Y-85701358D01*
X54431058Y-85670992D01*
X56261099Y-83840951D01*
X56323411Y-83806925D01*
X56338754Y-83804567D01*
X56412864Y-83797823D01*
X56444807Y-83787444D01*
X56566298Y-83747970D01*
X56566301Y-83747969D01*
X56572997Y-83745793D01*
X56717623Y-83659578D01*
X56722717Y-83654727D01*
X56722721Y-83654724D01*
X56834454Y-83548322D01*
X56834455Y-83548320D01*
X56839554Y-83543465D01*
X56932731Y-83403223D01*
X56992521Y-83245823D01*
X57007989Y-83135768D01*
X57015404Y-83083010D01*
X57015404Y-83083006D01*
X57015955Y-83079088D01*
X57016249Y-83058000D01*
X56997481Y-82890676D01*
X56942108Y-82731668D01*
X56852884Y-82588879D01*
X56847920Y-82583881D01*
X56843544Y-82578359D01*
X56845588Y-82576739D01*
X56817488Y-82524852D01*
X56814700Y-82498494D01*
X56814700Y-81434540D01*
X56834702Y-81366419D01*
X56851605Y-81345445D01*
X58871445Y-79325605D01*
X58933757Y-79291579D01*
X58960540Y-79288700D01*
X63570500Y-79288700D01*
X63638621Y-79308702D01*
X63685114Y-79362358D01*
X63696500Y-79414700D01*
X63696500Y-79618218D01*
X63697170Y-79622768D01*
X63697170Y-79622771D01*
X63700038Y-79642252D01*
X63706642Y-79687112D01*
X63758068Y-79791855D01*
X63840650Y-79874293D01*
X63945482Y-79925536D01*
X63975973Y-79929984D01*
X64009256Y-79934840D01*
X64009260Y-79934840D01*
X64013782Y-79935500D01*
X64353570Y-79935500D01*
X64421691Y-79955502D01*
X64468184Y-80009158D01*
X64478288Y-80079432D01*
X64448794Y-80144012D01*
X64397180Y-80179712D01*
X64388382Y-80182958D01*
X64377957Y-80186804D01*
X64188341Y-80299614D01*
X64022457Y-80445090D01*
X63885863Y-80618360D01*
X63783131Y-80813620D01*
X63717703Y-81024333D01*
X63691770Y-81243440D01*
X63706200Y-81463604D01*
X63707621Y-81469200D01*
X63707622Y-81469205D01*
X63752172Y-81644616D01*
X63760511Y-81677452D01*
X63762928Y-81682694D01*
X63762928Y-81682695D01*
X63801046Y-81765379D01*
X63852883Y-81877821D01*
X63980222Y-82058002D01*
X64138264Y-82211961D01*
X64143060Y-82215166D01*
X64143063Y-82215168D01*
X64227261Y-82271427D01*
X64321717Y-82334540D01*
X64327020Y-82336818D01*
X64327023Y-82336820D01*
X64519129Y-82419355D01*
X64524436Y-82421635D01*
X64604088Y-82439658D01*
X64733995Y-82469054D01*
X64734001Y-82469055D01*
X64739632Y-82470329D01*
X64745403Y-82470556D01*
X64745405Y-82470556D01*
X64813211Y-82473220D01*
X64960098Y-82478991D01*
X65069275Y-82463161D01*
X65172738Y-82448160D01*
X65172743Y-82448159D01*
X65178452Y-82447331D01*
X65183916Y-82445476D01*
X65183921Y-82445475D01*
X65381907Y-82378268D01*
X65381912Y-82378266D01*
X65387379Y-82376410D01*
X65579884Y-82268602D01*
X65749518Y-82127518D01*
X65823726Y-82038293D01*
X65886908Y-81962326D01*
X65886910Y-81962323D01*
X65890602Y-81957884D01*
X65998410Y-81765379D01*
X66000266Y-81759912D01*
X66000268Y-81759907D01*
X66067475Y-81561921D01*
X66067476Y-81561916D01*
X66069331Y-81556452D01*
X66070159Y-81550743D01*
X66070160Y-81550738D01*
X66073804Y-81525602D01*
X66103374Y-81461056D01*
X66163145Y-81422744D01*
X66234142Y-81422828D01*
X66293822Y-81461283D01*
X66323239Y-81525899D01*
X66324500Y-81543682D01*
X66324500Y-97059500D01*
X66304498Y-97127621D01*
X66250842Y-97174114D01*
X66198500Y-97185500D01*
X48101500Y-97185500D01*
X48033379Y-97165498D01*
X47986886Y-97111842D01*
X47975500Y-97059500D01*
X47975500Y-96275248D01*
X52462610Y-96275248D01*
X52472492Y-96287737D01*
X52580912Y-96360181D01*
X52591025Y-96365672D01*
X52774605Y-96444544D01*
X52785538Y-96448096D01*
X52980415Y-96492192D01*
X52991825Y-96493694D01*
X53191476Y-96501538D01*
X53202958Y-96500936D01*
X53400698Y-96472266D01*
X53411881Y-96469581D01*
X53601083Y-96405355D01*
X53611586Y-96400679D01*
X53785917Y-96303050D01*
X53795399Y-96296534D01*
X53804416Y-96289035D01*
X53812867Y-96276452D01*
X53806693Y-96265802D01*
X53149611Y-95608719D01*
X53135668Y-95601106D01*
X53133834Y-95601237D01*
X53127220Y-95605488D01*
X52468803Y-96263906D01*
X52462610Y-96275248D01*
X47975500Y-96275248D01*
X47975500Y-95323955D01*
X51982647Y-95323955D01*
X51995714Y-95523323D01*
X51997515Y-95534693D01*
X52046696Y-95728344D01*
X52050537Y-95739190D01*
X52134186Y-95920639D01*
X52139937Y-95930600D01*
X52198714Y-96013769D01*
X52209304Y-96022157D01*
X52222603Y-96015130D01*
X52876502Y-95361232D01*
X52882879Y-95349553D01*
X53389485Y-95349553D01*
X53389616Y-95351387D01*
X53393867Y-95358001D01*
X54053023Y-96017156D01*
X54066326Y-96024420D01*
X54076363Y-96017300D01*
X54084913Y-96007020D01*
X54091429Y-95997538D01*
X54189058Y-95823207D01*
X54193734Y-95812704D01*
X54257960Y-95623502D01*
X54260645Y-95612319D01*
X54289611Y-95412539D01*
X54290241Y-95405157D01*
X54291630Y-95352125D01*
X54291387Y-95344726D01*
X54272917Y-95143706D01*
X54270820Y-95132392D01*
X54216585Y-94940091D01*
X54212463Y-94929352D01*
X54124093Y-94750157D01*
X54118078Y-94740340D01*
X54075177Y-94682889D01*
X54063917Y-94674438D01*
X54051501Y-94681208D01*
X53397098Y-95335610D01*
X53389485Y-95349553D01*
X52882879Y-95349553D01*
X52884115Y-95347289D01*
X52883984Y-95345455D01*
X52879733Y-95338841D01*
X52221603Y-94680712D01*
X52208768Y-94673703D01*
X52198076Y-94681501D01*
X52171778Y-94714861D01*
X52165504Y-94724522D01*
X52072479Y-94901333D01*
X52068073Y-94911970D01*
X52008825Y-95102777D01*
X52006432Y-95114035D01*
X51982948Y-95312454D01*
X51982647Y-95323955D01*
X47975500Y-95323955D01*
X47975500Y-91242474D01*
X48721222Y-91242474D01*
X48722117Y-91248120D01*
X48773563Y-91450689D01*
X48777401Y-91461527D01*
X48864898Y-91651324D01*
X48870649Y-91661285D01*
X48991272Y-91831962D01*
X48998740Y-91840705D01*
X49148446Y-91986543D01*
X49157380Y-91993777D01*
X49331152Y-92109889D01*
X49341265Y-92115380D01*
X49533288Y-92197879D01*
X49544221Y-92201431D01*
X49718332Y-92240828D01*
X49732405Y-92239939D01*
X49736000Y-92230540D01*
X49736000Y-92223146D01*
X50086000Y-92223146D01*
X50089966Y-92236652D01*
X50103965Y-92238656D01*
X50186613Y-92226673D01*
X50197809Y-92223985D01*
X50395707Y-92156807D01*
X50406216Y-92152128D01*
X50588552Y-92050015D01*
X50598045Y-92043490D01*
X50758725Y-91909854D01*
X50766854Y-91901725D01*
X50900490Y-91741045D01*
X50907015Y-91731552D01*
X51009128Y-91549216D01*
X51013807Y-91538707D01*
X51080985Y-91340809D01*
X51083673Y-91329613D01*
X51095661Y-91246929D01*
X51093675Y-91232993D01*
X51080107Y-91229000D01*
X50104115Y-91229000D01*
X50088876Y-91233475D01*
X50087671Y-91234865D01*
X50086000Y-91242548D01*
X50086000Y-92223146D01*
X49736000Y-92223146D01*
X49736000Y-91247115D01*
X49731525Y-91231876D01*
X49730135Y-91230671D01*
X49722452Y-91229000D01*
X48737924Y-91229000D01*
X48722884Y-91233416D01*
X48721222Y-91242474D01*
X47975500Y-91242474D01*
X47975500Y-84253051D01*
X47975915Y-84244785D01*
X47978084Y-84236544D01*
X47977534Y-84226867D01*
X47977547Y-84226377D01*
X47977722Y-84224641D01*
X47977677Y-84221584D01*
X47979200Y-84165456D01*
X47982559Y-84041596D01*
X47959356Y-83848044D01*
X47957426Y-83840951D01*
X47909373Y-83664406D01*
X47908160Y-83659948D01*
X47830068Y-83481335D01*
X47827624Y-83477424D01*
X47827621Y-83477419D01*
X47729198Y-83319943D01*
X47729197Y-83319942D01*
X47726751Y-83316028D01*
X47688259Y-83270792D01*
X47659347Y-83205949D01*
X47670081Y-83135768D01*
X47717053Y-83082532D01*
X47752034Y-83067317D01*
X47961701Y-83011921D01*
X47961702Y-83011921D01*
X47965092Y-83011025D01*
X48293536Y-82883630D01*
X48605733Y-82720417D01*
X48897791Y-82523421D01*
X48927284Y-82498321D01*
X49163397Y-82297373D01*
X49163398Y-82297372D01*
X49166070Y-82295098D01*
X49244141Y-82211961D01*
X49404815Y-82040861D01*
X49404819Y-82040856D01*
X49407226Y-82038293D01*
X49409331Y-82035479D01*
X49409337Y-82035472D01*
X49616144Y-81759026D01*
X49618253Y-81756207D01*
X49796521Y-81452356D01*
X49939809Y-81130527D01*
X50046329Y-80794732D01*
X50114755Y-80449156D01*
X50115049Y-80445656D01*
X50144051Y-80100288D01*
X50144051Y-80100281D01*
X50144234Y-80098106D01*
X50145464Y-80010000D01*
X50144829Y-79998630D01*
X50125995Y-79661772D01*
X50125799Y-79658264D01*
X50108281Y-79554693D01*
X50067636Y-79314381D01*
X50067635Y-79314376D01*
X50067049Y-79310912D01*
X49969946Y-78972273D01*
X49923066Y-78858535D01*
X49837038Y-78649814D01*
X49837034Y-78649807D01*
X49835700Y-78646569D01*
X49682486Y-78367874D01*
X49667681Y-78340943D01*
X49667676Y-78340936D01*
X49665985Y-78337859D01*
X49652016Y-78318056D01*
X49464942Y-78052863D01*
X49462916Y-78049991D01*
X49229025Y-77786552D01*
X49017070Y-77595707D01*
X48969844Y-77553184D01*
X48969841Y-77553182D01*
X48967226Y-77550827D01*
X48964373Y-77548785D01*
X48964365Y-77548778D01*
X48776039Y-77413951D01*
X48732293Y-77358033D01*
X48725724Y-77287341D01*
X48758416Y-77224319D01*
X48819991Y-77188977D01*
X48849386Y-77185500D01*
X66198500Y-77185500D01*
X66266621Y-77205502D01*
G37*
%TD.AperFunction*%
%TD*%
M02*
