%TF.GenerationSoftware,KiCad,Pcbnew,6.0.7-1.fc35*%
%TF.CreationDate,2022-08-25T19:39:04+02:00*%
%TF.ProjectId,NE555_OC,4e453535-355f-44f4-932e-6b696361645f,rev?*%
%TF.SameCoordinates,Original*%
%TF.FileFunction,Legend,Bot*%
%TF.FilePolarity,Positive*%
%FSLAX46Y46*%
G04 Gerber Fmt 4.6, Leading zero omitted, Abs format (unit mm)*
G04 Created by KiCad (PCBNEW 6.0.7-1.fc35) date 2022-08-25 19:39:04*
%MOMM*%
%LPD*%
G01*
G04 APERTURE LIST*
G04 Aperture macros list*
%AMRoundRect*
0 Rectangle with rounded corners*
0 $1 Rounding radius*
0 $2 $3 $4 $5 $6 $7 $8 $9 X,Y pos of 4 corners*
0 Add a 4 corners polygon primitive as box body*
4,1,4,$2,$3,$4,$5,$6,$7,$8,$9,$2,$3,0*
0 Add four circle primitives for the rounded corners*
1,1,$1+$1,$2,$3*
1,1,$1+$1,$4,$5*
1,1,$1+$1,$6,$7*
1,1,$1+$1,$8,$9*
0 Add four rect primitives between the rounded corners*
20,1,$1+$1,$2,$3,$4,$5,0*
20,1,$1+$1,$4,$5,$6,$7,0*
20,1,$1+$1,$6,$7,$8,$9,0*
20,1,$1+$1,$8,$9,$2,$3,0*%
G04 Aperture macros list end*
%ADD10C,0.150000*%
%ADD11C,0.200000*%
%ADD12C,0.010000*%
%ADD13C,0.120000*%
%ADD14RoundRect,0.050000X-0.850000X-0.850000X0.850000X-0.850000X0.850000X0.850000X-0.850000X0.850000X0*%
%ADD15O,1.800000X1.800000*%
%ADD16C,5.700000*%
%ADD17RoundRect,0.050000X-0.800000X0.800000X-0.800000X-0.800000X0.800000X-0.800000X0.800000X0.800000X0*%
%ADD18C,1.700000*%
G04 APERTURE END LIST*
D10*
X62845238Y-80802380D02*
X62654761Y-80802380D01*
X62559523Y-80850000D01*
X62464285Y-80945238D01*
X62416666Y-81135714D01*
X62416666Y-81469047D01*
X62464285Y-81659523D01*
X62559523Y-81754761D01*
X62654761Y-81802380D01*
X62845238Y-81802380D01*
X62940476Y-81754761D01*
X63035714Y-81659523D01*
X63083333Y-81469047D01*
X63083333Y-81135714D01*
X63035714Y-80945238D01*
X62940476Y-80850000D01*
X62845238Y-80802380D01*
X61416666Y-81707142D02*
X61464285Y-81754761D01*
X61607142Y-81802380D01*
X61702380Y-81802380D01*
X61845238Y-81754761D01*
X61940476Y-81659523D01*
X61988095Y-81564285D01*
X62035714Y-81373809D01*
X62035714Y-81230952D01*
X61988095Y-81040476D01*
X61940476Y-80945238D01*
X61845238Y-80850000D01*
X61702380Y-80802380D01*
X61607142Y-80802380D01*
X61464285Y-80850000D01*
X61416666Y-80897619D01*
X63090476Y-78347619D02*
X63042857Y-78300000D01*
X62947619Y-78252380D01*
X62709523Y-78252380D01*
X62614285Y-78300000D01*
X62566666Y-78347619D01*
X62519047Y-78442857D01*
X62519047Y-78538095D01*
X62566666Y-78680952D01*
X63138095Y-79252380D01*
X62519047Y-79252380D01*
X61661904Y-78585714D02*
X61661904Y-79252380D01*
X61900000Y-78204761D02*
X62138095Y-78919047D01*
X61519047Y-78919047D01*
X61280952Y-78252380D02*
X60947619Y-79252380D01*
X60614285Y-78252380D01*
X54090476Y-87497619D02*
X54042857Y-87450000D01*
X53947619Y-87402380D01*
X53709523Y-87402380D01*
X53614285Y-87450000D01*
X53566666Y-87497619D01*
X53519047Y-87592857D01*
X53519047Y-87688095D01*
X53566666Y-87830952D01*
X54138095Y-88402380D01*
X53519047Y-88402380D01*
X52661904Y-87735714D02*
X52661904Y-88402380D01*
X52900000Y-87354761D02*
X53138095Y-88069047D01*
X52519047Y-88069047D01*
X52280952Y-87402380D02*
X51947619Y-88402380D01*
X51614285Y-87402380D01*
X53861904Y-89400000D02*
X53957142Y-89352380D01*
X54100000Y-89352380D01*
X54242857Y-89400000D01*
X54338095Y-89495238D01*
X54385714Y-89590476D01*
X54433333Y-89780952D01*
X54433333Y-89923809D01*
X54385714Y-90114285D01*
X54338095Y-90209523D01*
X54242857Y-90304761D01*
X54100000Y-90352380D01*
X54004761Y-90352380D01*
X53861904Y-90304761D01*
X53814285Y-90257142D01*
X53814285Y-89923809D01*
X54004761Y-89923809D01*
X53385714Y-90352380D02*
X53385714Y-89352380D01*
X52814285Y-90352380D01*
X52814285Y-89352380D01*
X52338095Y-90352380D02*
X52338095Y-89352380D01*
X52100000Y-89352380D01*
X51957142Y-89400000D01*
X51861904Y-89495238D01*
X51814285Y-89590476D01*
X51766666Y-89780952D01*
X51766666Y-89923809D01*
X51814285Y-90114285D01*
X51861904Y-90209523D01*
X51957142Y-90304761D01*
X52100000Y-90352380D01*
X52338095Y-90352380D01*
X66000000Y-90800000D02*
X66000000Y-97350000D01*
X52650000Y-90800000D02*
X66000000Y-90800000D01*
X66000000Y-97350000D02*
X52550000Y-97350000D01*
D11*
X64416666Y-93641595D02*
X64416666Y-92341595D01*
X63673809Y-93641595D01*
X63673809Y-92341595D01*
X63054761Y-92960642D02*
X62621428Y-92960642D01*
X62435714Y-93641595D02*
X63054761Y-93641595D01*
X63054761Y-92341595D01*
X62435714Y-92341595D01*
X61259523Y-92341595D02*
X61878571Y-92341595D01*
X61940476Y-92960642D01*
X61878571Y-92898738D01*
X61754761Y-92836833D01*
X61445238Y-92836833D01*
X61321428Y-92898738D01*
X61259523Y-92960642D01*
X61197619Y-93084452D01*
X61197619Y-93393976D01*
X61259523Y-93517785D01*
X61321428Y-93579690D01*
X61445238Y-93641595D01*
X61754761Y-93641595D01*
X61878571Y-93579690D01*
X61940476Y-93517785D01*
X60021428Y-92341595D02*
X60640476Y-92341595D01*
X60702380Y-92960642D01*
X60640476Y-92898738D01*
X60516666Y-92836833D01*
X60207142Y-92836833D01*
X60083333Y-92898738D01*
X60021428Y-92960642D01*
X59959523Y-93084452D01*
X59959523Y-93393976D01*
X60021428Y-93517785D01*
X60083333Y-93579690D01*
X60207142Y-93641595D01*
X60516666Y-93641595D01*
X60640476Y-93579690D01*
X60702380Y-93517785D01*
X58783333Y-92341595D02*
X59402380Y-92341595D01*
X59464285Y-92960642D01*
X59402380Y-92898738D01*
X59278571Y-92836833D01*
X58969047Y-92836833D01*
X58845238Y-92898738D01*
X58783333Y-92960642D01*
X58721428Y-93084452D01*
X58721428Y-93393976D01*
X58783333Y-93517785D01*
X58845238Y-93579690D01*
X58969047Y-93641595D01*
X59278571Y-93641595D01*
X59402380Y-93579690D01*
X59464285Y-93517785D01*
X64633333Y-94434595D02*
X64385714Y-94434595D01*
X64261904Y-94496500D01*
X64138095Y-94620309D01*
X64076190Y-94867928D01*
X64076190Y-95301261D01*
X64138095Y-95548880D01*
X64261904Y-95672690D01*
X64385714Y-95734595D01*
X64633333Y-95734595D01*
X64757142Y-95672690D01*
X64880952Y-95548880D01*
X64942857Y-95301261D01*
X64942857Y-94867928D01*
X64880952Y-94620309D01*
X64757142Y-94496500D01*
X64633333Y-94434595D01*
X62776190Y-95610785D02*
X62838095Y-95672690D01*
X63023809Y-95734595D01*
X63147619Y-95734595D01*
X63333333Y-95672690D01*
X63457142Y-95548880D01*
X63519047Y-95425071D01*
X63580952Y-95177452D01*
X63580952Y-94991738D01*
X63519047Y-94744119D01*
X63457142Y-94620309D01*
X63333333Y-94496500D01*
X63147619Y-94434595D01*
X63023809Y-94434595D01*
X62838095Y-94496500D01*
X62776190Y-94558404D01*
X60485714Y-95734595D02*
X60919047Y-95115547D01*
X61228571Y-95734595D02*
X61228571Y-94434595D01*
X60733333Y-94434595D01*
X60609523Y-94496500D01*
X60547619Y-94558404D01*
X60485714Y-94682214D01*
X60485714Y-94867928D01*
X60547619Y-94991738D01*
X60609523Y-95053642D01*
X60733333Y-95115547D01*
X61228571Y-95115547D01*
X59928571Y-95053642D02*
X59495238Y-95053642D01*
X59309523Y-95734595D02*
X59928571Y-95734595D01*
X59928571Y-94434595D01*
X59309523Y-94434595D01*
X58133333Y-95734595D02*
X58752380Y-95734595D01*
X58752380Y-94434595D01*
D10*
%TO.C,C4*%
X49007142Y-95133333D02*
X49054761Y-95085714D01*
X49102380Y-94942857D01*
X49102380Y-94847619D01*
X49054761Y-94704761D01*
X48959523Y-94609523D01*
X48864285Y-94561904D01*
X48673809Y-94514285D01*
X48530952Y-94514285D01*
X48340476Y-94561904D01*
X48245238Y-94609523D01*
X48150000Y-94704761D01*
X48102380Y-94847619D01*
X48102380Y-94942857D01*
X48150000Y-95085714D01*
X48197619Y-95133333D01*
X48435714Y-95990476D02*
X49102380Y-95990476D01*
X48054761Y-95752380D02*
X48769047Y-95514285D01*
X48769047Y-96133333D01*
%TO.C,G\u002A\u002A\u002A*%
G36*
X60887896Y-84812760D02*
G01*
X61074379Y-84812872D01*
X61254533Y-84813055D01*
X61427391Y-84813305D01*
X61591983Y-84813619D01*
X61747342Y-84813992D01*
X61892499Y-84814421D01*
X62026488Y-84814903D01*
X62148338Y-84815432D01*
X62257083Y-84816006D01*
X62351754Y-84816620D01*
X62431383Y-84817271D01*
X62495002Y-84817955D01*
X62541643Y-84818668D01*
X62570337Y-84819406D01*
X62580117Y-84820166D01*
X62580088Y-84820244D01*
X62572288Y-84828798D01*
X62551144Y-84850674D01*
X62517340Y-84885187D01*
X62471554Y-84931652D01*
X62414470Y-84989384D01*
X62346766Y-85057698D01*
X62269126Y-85135909D01*
X62182230Y-85223333D01*
X62086758Y-85319284D01*
X61983393Y-85423078D01*
X61872815Y-85534030D01*
X61755705Y-85651454D01*
X61632744Y-85774666D01*
X61504615Y-85902981D01*
X61371996Y-86035715D01*
X61235571Y-86172181D01*
X61226482Y-86181270D01*
X61090271Y-86317455D01*
X60957863Y-86449788D01*
X60829940Y-86577589D01*
X60707186Y-86700177D01*
X60590284Y-86816871D01*
X60479919Y-86926990D01*
X60376772Y-87029853D01*
X60281528Y-87124779D01*
X60194870Y-87211088D01*
X60117481Y-87288097D01*
X60050045Y-87355128D01*
X59993245Y-87411498D01*
X59947765Y-87456526D01*
X59914288Y-87489533D01*
X59893497Y-87509836D01*
X59886076Y-87516755D01*
X59878669Y-87510136D01*
X59858292Y-87490524D01*
X59826065Y-87459012D01*
X59783094Y-87416698D01*
X59730487Y-87364678D01*
X59669352Y-87304047D01*
X59600794Y-87235904D01*
X59525921Y-87161343D01*
X59445840Y-87081462D01*
X59361659Y-86997358D01*
X58842191Y-86477961D01*
X58842191Y-86311409D01*
X58842434Y-86269227D01*
X58843426Y-86219692D01*
X58845050Y-86180284D01*
X58847160Y-86154255D01*
X58849612Y-86144856D01*
X58856707Y-86150823D01*
X58876848Y-86169811D01*
X58908865Y-86200748D01*
X58951640Y-86242534D01*
X59004053Y-86294064D01*
X59064986Y-86354237D01*
X59133321Y-86421949D01*
X59207938Y-86496098D01*
X59287719Y-86575582D01*
X59371545Y-86659297D01*
X59886057Y-87173738D01*
X62008481Y-85051314D01*
X59403981Y-85051314D01*
X60094949Y-85742494D01*
X59915677Y-85920936D01*
X59368993Y-85374319D01*
X59348090Y-85353414D01*
X59262633Y-85267830D01*
X59181630Y-85186524D01*
X59106150Y-85110581D01*
X59037264Y-85041085D01*
X58976040Y-84979120D01*
X58923549Y-84925770D01*
X58880861Y-84882121D01*
X58849045Y-84849255D01*
X58829171Y-84828258D01*
X58822309Y-84820213D01*
X58831580Y-84819469D01*
X58859784Y-84818726D01*
X58905960Y-84818007D01*
X58969140Y-84817318D01*
X59048356Y-84816662D01*
X59142640Y-84816043D01*
X59251023Y-84815464D01*
X59372538Y-84814930D01*
X59506216Y-84814445D01*
X59651089Y-84814011D01*
X59806189Y-84813634D01*
X59970548Y-84813316D01*
X60143199Y-84813063D01*
X60323171Y-84812877D01*
X60509499Y-84812762D01*
X60701213Y-84812723D01*
X60887896Y-84812760D01*
G37*
D12*
X60887896Y-84812760D02*
X61074379Y-84812872D01*
X61254533Y-84813055D01*
X61427391Y-84813305D01*
X61591983Y-84813619D01*
X61747342Y-84813992D01*
X61892499Y-84814421D01*
X62026488Y-84814903D01*
X62148338Y-84815432D01*
X62257083Y-84816006D01*
X62351754Y-84816620D01*
X62431383Y-84817271D01*
X62495002Y-84817955D01*
X62541643Y-84818668D01*
X62570337Y-84819406D01*
X62580117Y-84820166D01*
X62580088Y-84820244D01*
X62572288Y-84828798D01*
X62551144Y-84850674D01*
X62517340Y-84885187D01*
X62471554Y-84931652D01*
X62414470Y-84989384D01*
X62346766Y-85057698D01*
X62269126Y-85135909D01*
X62182230Y-85223333D01*
X62086758Y-85319284D01*
X61983393Y-85423078D01*
X61872815Y-85534030D01*
X61755705Y-85651454D01*
X61632744Y-85774666D01*
X61504615Y-85902981D01*
X61371996Y-86035715D01*
X61235571Y-86172181D01*
X61226482Y-86181270D01*
X61090271Y-86317455D01*
X60957863Y-86449788D01*
X60829940Y-86577589D01*
X60707186Y-86700177D01*
X60590284Y-86816871D01*
X60479919Y-86926990D01*
X60376772Y-87029853D01*
X60281528Y-87124779D01*
X60194870Y-87211088D01*
X60117481Y-87288097D01*
X60050045Y-87355128D01*
X59993245Y-87411498D01*
X59947765Y-87456526D01*
X59914288Y-87489533D01*
X59893497Y-87509836D01*
X59886076Y-87516755D01*
X59878669Y-87510136D01*
X59858292Y-87490524D01*
X59826065Y-87459012D01*
X59783094Y-87416698D01*
X59730487Y-87364678D01*
X59669352Y-87304047D01*
X59600794Y-87235904D01*
X59525921Y-87161343D01*
X59445840Y-87081462D01*
X59361659Y-86997358D01*
X58842191Y-86477961D01*
X58842191Y-86311409D01*
X58842434Y-86269227D01*
X58843426Y-86219692D01*
X58845050Y-86180284D01*
X58847160Y-86154255D01*
X58849612Y-86144856D01*
X58856707Y-86150823D01*
X58876848Y-86169811D01*
X58908865Y-86200748D01*
X58951640Y-86242534D01*
X59004053Y-86294064D01*
X59064986Y-86354237D01*
X59133321Y-86421949D01*
X59207938Y-86496098D01*
X59287719Y-86575582D01*
X59371545Y-86659297D01*
X59886057Y-87173738D01*
X62008481Y-85051314D01*
X59403981Y-85051314D01*
X60094949Y-85742494D01*
X59915677Y-85920936D01*
X59368993Y-85374319D01*
X59348090Y-85353414D01*
X59262633Y-85267830D01*
X59181630Y-85186524D01*
X59106150Y-85110581D01*
X59037264Y-85041085D01*
X58976040Y-84979120D01*
X58923549Y-84925770D01*
X58880861Y-84882121D01*
X58849045Y-84849255D01*
X58829171Y-84828258D01*
X58822309Y-84820213D01*
X58831580Y-84819469D01*
X58859784Y-84818726D01*
X58905960Y-84818007D01*
X58969140Y-84817318D01*
X59048356Y-84816662D01*
X59142640Y-84816043D01*
X59251023Y-84815464D01*
X59372538Y-84814930D01*
X59506216Y-84814445D01*
X59651089Y-84814011D01*
X59806189Y-84813634D01*
X59970548Y-84813316D01*
X60143199Y-84813063D01*
X60323171Y-84812877D01*
X60509499Y-84812762D01*
X60701213Y-84812723D01*
X60887896Y-84812760D01*
G36*
X58849743Y-85280004D02*
G01*
X58858803Y-85287875D01*
X58880715Y-85308658D01*
X58914378Y-85341265D01*
X58958689Y-85384610D01*
X59012547Y-85437606D01*
X59074848Y-85499166D01*
X59144490Y-85568202D01*
X59220372Y-85643628D01*
X59301390Y-85724357D01*
X59386442Y-85809302D01*
X59915849Y-86338641D01*
X60934905Y-85319729D01*
X61101386Y-85319729D01*
X61143503Y-85319972D01*
X61193034Y-85320965D01*
X61232439Y-85322590D01*
X61258468Y-85324703D01*
X61267866Y-85327158D01*
X61266931Y-85328486D01*
X61255141Y-85341321D01*
X61230591Y-85366868D01*
X61194244Y-85404154D01*
X61147064Y-85452203D01*
X61090013Y-85510042D01*
X61024055Y-85576698D01*
X60950153Y-85651197D01*
X60869271Y-85732564D01*
X60782371Y-85819825D01*
X60690417Y-85912007D01*
X60594371Y-86008136D01*
X60558569Y-86043935D01*
X60463850Y-86138574D01*
X60373481Y-86228769D01*
X60288432Y-86313557D01*
X60209672Y-86391975D01*
X60138172Y-86463061D01*
X60074900Y-86525852D01*
X60020827Y-86579385D01*
X59976922Y-86622698D01*
X59944154Y-86654827D01*
X59923495Y-86674811D01*
X59915912Y-86681686D01*
X59915702Y-86681577D01*
X59906375Y-86673039D01*
X59884230Y-86651645D01*
X59850358Y-86618475D01*
X59805851Y-86574611D01*
X59751800Y-86521133D01*
X59689295Y-86459122D01*
X59619428Y-86389660D01*
X59543291Y-86313828D01*
X59461975Y-86232706D01*
X59376570Y-86147376D01*
X58842191Y-85613066D01*
X58842191Y-85446515D01*
X58842434Y-85404335D01*
X58843426Y-85354800D01*
X58845050Y-85315392D01*
X58847160Y-85289363D01*
X58849613Y-85279964D01*
X58849743Y-85280004D01*
G37*
X58849743Y-85280004D02*
X58858803Y-85287875D01*
X58880715Y-85308658D01*
X58914378Y-85341265D01*
X58958689Y-85384610D01*
X59012547Y-85437606D01*
X59074848Y-85499166D01*
X59144490Y-85568202D01*
X59220372Y-85643628D01*
X59301390Y-85724357D01*
X59386442Y-85809302D01*
X59915849Y-86338641D01*
X60934905Y-85319729D01*
X61101386Y-85319729D01*
X61143503Y-85319972D01*
X61193034Y-85320965D01*
X61232439Y-85322590D01*
X61258468Y-85324703D01*
X61267866Y-85327158D01*
X61266931Y-85328486D01*
X61255141Y-85341321D01*
X61230591Y-85366868D01*
X61194244Y-85404154D01*
X61147064Y-85452203D01*
X61090013Y-85510042D01*
X61024055Y-85576698D01*
X60950153Y-85651197D01*
X60869271Y-85732564D01*
X60782371Y-85819825D01*
X60690417Y-85912007D01*
X60594371Y-86008136D01*
X60558569Y-86043935D01*
X60463850Y-86138574D01*
X60373481Y-86228769D01*
X60288432Y-86313557D01*
X60209672Y-86391975D01*
X60138172Y-86463061D01*
X60074900Y-86525852D01*
X60020827Y-86579385D01*
X59976922Y-86622698D01*
X59944154Y-86654827D01*
X59923495Y-86674811D01*
X59915912Y-86681686D01*
X59915702Y-86681577D01*
X59906375Y-86673039D01*
X59884230Y-86651645D01*
X59850358Y-86618475D01*
X59805851Y-86574611D01*
X59751800Y-86521133D01*
X59689295Y-86459122D01*
X59619428Y-86389660D01*
X59543291Y-86313828D01*
X59461975Y-86232706D01*
X59376570Y-86147376D01*
X58842191Y-85613066D01*
X58842191Y-85446515D01*
X58842434Y-85404335D01*
X58843426Y-85354800D01*
X58845050Y-85315392D01*
X58847160Y-85289363D01*
X58849613Y-85279964D01*
X58849743Y-85280004D01*
G36*
X55109402Y-84785228D02*
G01*
X55221553Y-84799399D01*
X55320780Y-84826833D01*
X55406451Y-84867110D01*
X55477930Y-84919814D01*
X55534586Y-84984523D01*
X55575783Y-85060821D01*
X55600888Y-85148289D01*
X55603945Y-85168434D01*
X55604584Y-85251133D01*
X55587223Y-85332196D01*
X55553315Y-85408908D01*
X55504311Y-85478555D01*
X55441664Y-85538423D01*
X55366825Y-85585799D01*
X55333747Y-85601165D01*
X55255456Y-85631456D01*
X55160118Y-85661849D01*
X55049588Y-85691722D01*
X54990576Y-85707131D01*
X54908418Y-85731589D01*
X54845405Y-85754828D01*
X54801110Y-85776996D01*
X54770981Y-85802845D01*
X54747305Y-85843724D01*
X54738089Y-85891111D01*
X54743386Y-85941028D01*
X54763248Y-85989494D01*
X54797727Y-86032531D01*
X54830642Y-86058127D01*
X54881213Y-86081922D01*
X54943131Y-86095417D01*
X55019765Y-86099630D01*
X55045316Y-86099226D01*
X55114747Y-86092634D01*
X55171176Y-86076784D01*
X55218785Y-86050149D01*
X55261756Y-86011201D01*
X55280060Y-85987702D01*
X55302899Y-85950003D01*
X55323038Y-85908830D01*
X55337387Y-85870632D01*
X55342857Y-85841861D01*
X55343569Y-85836168D01*
X55352490Y-85821954D01*
X55353638Y-85821578D01*
X55369681Y-85821156D01*
X55400197Y-85822611D01*
X55440898Y-85825535D01*
X55487494Y-85829521D01*
X55535699Y-85834160D01*
X55581223Y-85839044D01*
X55619777Y-85843767D01*
X55647074Y-85847919D01*
X55658826Y-85851093D01*
X55660376Y-85857531D01*
X55657917Y-85880116D01*
X55650556Y-85913944D01*
X55639555Y-85954496D01*
X55626177Y-85997254D01*
X55611682Y-86037697D01*
X55597333Y-86071308D01*
X55594369Y-86077356D01*
X55543953Y-86159337D01*
X55481008Y-86226948D01*
X55404700Y-86280787D01*
X55314192Y-86321454D01*
X55208649Y-86349547D01*
X55166828Y-86355147D01*
X55106435Y-86358772D01*
X55037341Y-86359709D01*
X54965244Y-86358096D01*
X54895840Y-86354071D01*
X54834826Y-86347772D01*
X54787896Y-86339337D01*
X54747476Y-86327831D01*
X54655306Y-86288744D01*
X54576356Y-86235326D01*
X54511293Y-86168090D01*
X54460785Y-86087552D01*
X54444589Y-86053515D01*
X54433019Y-86023645D01*
X54426093Y-85994331D01*
X54422238Y-85958762D01*
X54419884Y-85910123D01*
X54420059Y-85847841D01*
X54430774Y-85763399D01*
X54454757Y-85690276D01*
X54492696Y-85625787D01*
X54500092Y-85616046D01*
X54541092Y-85570571D01*
X54589602Y-85530858D01*
X54648093Y-85495583D01*
X54719036Y-85463422D01*
X54804901Y-85433050D01*
X54908159Y-85403145D01*
X54982724Y-85382939D01*
X55064628Y-85359584D01*
X55130456Y-85338923D01*
X55182102Y-85320064D01*
X55221463Y-85302115D01*
X55250432Y-85284184D01*
X55270906Y-85265378D01*
X55284779Y-85244806D01*
X55293947Y-85221577D01*
X55299327Y-85182059D01*
X55288040Y-85142440D01*
X55257953Y-85107380D01*
X55208649Y-85076168D01*
X55184190Y-85064480D01*
X55158255Y-85054770D01*
X55131384Y-85049300D01*
X55097266Y-85046886D01*
X55049588Y-85046344D01*
X55032280Y-85046405D01*
X54987696Y-85047689D01*
X54955224Y-85051354D01*
X54928966Y-85058335D01*
X54903024Y-85069565D01*
X54893397Y-85074564D01*
X54851398Y-85105304D01*
X54819459Y-85147497D01*
X54794332Y-85205196D01*
X54777293Y-85255111D01*
X54620373Y-85251998D01*
X54587319Y-85251248D01*
X54537614Y-85249730D01*
X54497372Y-85248010D01*
X54470065Y-85246245D01*
X54459166Y-85244597D01*
X54458974Y-85244311D01*
X54458805Y-85231640D01*
X54461804Y-85205216D01*
X54467385Y-85170324D01*
X54484038Y-85103343D01*
X54520884Y-85019983D01*
X54573150Y-84948616D01*
X54640340Y-84889572D01*
X54721957Y-84843183D01*
X54817504Y-84809778D01*
X54926486Y-84789689D01*
X55048405Y-84783246D01*
X55109402Y-84785228D01*
G37*
X55109402Y-84785228D02*
X55221553Y-84799399D01*
X55320780Y-84826833D01*
X55406451Y-84867110D01*
X55477930Y-84919814D01*
X55534586Y-84984523D01*
X55575783Y-85060821D01*
X55600888Y-85148289D01*
X55603945Y-85168434D01*
X55604584Y-85251133D01*
X55587223Y-85332196D01*
X55553315Y-85408908D01*
X55504311Y-85478555D01*
X55441664Y-85538423D01*
X55366825Y-85585799D01*
X55333747Y-85601165D01*
X55255456Y-85631456D01*
X55160118Y-85661849D01*
X55049588Y-85691722D01*
X54990576Y-85707131D01*
X54908418Y-85731589D01*
X54845405Y-85754828D01*
X54801110Y-85776996D01*
X54770981Y-85802845D01*
X54747305Y-85843724D01*
X54738089Y-85891111D01*
X54743386Y-85941028D01*
X54763248Y-85989494D01*
X54797727Y-86032531D01*
X54830642Y-86058127D01*
X54881213Y-86081922D01*
X54943131Y-86095417D01*
X55019765Y-86099630D01*
X55045316Y-86099226D01*
X55114747Y-86092634D01*
X55171176Y-86076784D01*
X55218785Y-86050149D01*
X55261756Y-86011201D01*
X55280060Y-85987702D01*
X55302899Y-85950003D01*
X55323038Y-85908830D01*
X55337387Y-85870632D01*
X55342857Y-85841861D01*
X55343569Y-85836168D01*
X55352490Y-85821954D01*
X55353638Y-85821578D01*
X55369681Y-85821156D01*
X55400197Y-85822611D01*
X55440898Y-85825535D01*
X55487494Y-85829521D01*
X55535699Y-85834160D01*
X55581223Y-85839044D01*
X55619777Y-85843767D01*
X55647074Y-85847919D01*
X55658826Y-85851093D01*
X55660376Y-85857531D01*
X55657917Y-85880116D01*
X55650556Y-85913944D01*
X55639555Y-85954496D01*
X55626177Y-85997254D01*
X55611682Y-86037697D01*
X55597333Y-86071308D01*
X55594369Y-86077356D01*
X55543953Y-86159337D01*
X55481008Y-86226948D01*
X55404700Y-86280787D01*
X55314192Y-86321454D01*
X55208649Y-86349547D01*
X55166828Y-86355147D01*
X55106435Y-86358772D01*
X55037341Y-86359709D01*
X54965244Y-86358096D01*
X54895840Y-86354071D01*
X54834826Y-86347772D01*
X54787896Y-86339337D01*
X54747476Y-86327831D01*
X54655306Y-86288744D01*
X54576356Y-86235326D01*
X54511293Y-86168090D01*
X54460785Y-86087552D01*
X54444589Y-86053515D01*
X54433019Y-86023645D01*
X54426093Y-85994331D01*
X54422238Y-85958762D01*
X54419884Y-85910123D01*
X54420059Y-85847841D01*
X54430774Y-85763399D01*
X54454757Y-85690276D01*
X54492696Y-85625787D01*
X54500092Y-85616046D01*
X54541092Y-85570571D01*
X54589602Y-85530858D01*
X54648093Y-85495583D01*
X54719036Y-85463422D01*
X54804901Y-85433050D01*
X54908159Y-85403145D01*
X54982724Y-85382939D01*
X55064628Y-85359584D01*
X55130456Y-85338923D01*
X55182102Y-85320064D01*
X55221463Y-85302115D01*
X55250432Y-85284184D01*
X55270906Y-85265378D01*
X55284779Y-85244806D01*
X55293947Y-85221577D01*
X55299327Y-85182059D01*
X55288040Y-85142440D01*
X55257953Y-85107380D01*
X55208649Y-85076168D01*
X55184190Y-85064480D01*
X55158255Y-85054770D01*
X55131384Y-85049300D01*
X55097266Y-85046886D01*
X55049588Y-85046344D01*
X55032280Y-85046405D01*
X54987696Y-85047689D01*
X54955224Y-85051354D01*
X54928966Y-85058335D01*
X54903024Y-85069565D01*
X54893397Y-85074564D01*
X54851398Y-85105304D01*
X54819459Y-85147497D01*
X54794332Y-85205196D01*
X54777293Y-85255111D01*
X54620373Y-85251998D01*
X54587319Y-85251248D01*
X54537614Y-85249730D01*
X54497372Y-85248010D01*
X54470065Y-85246245D01*
X54459166Y-85244597D01*
X54458974Y-85244311D01*
X54458805Y-85231640D01*
X54461804Y-85205216D01*
X54467385Y-85170324D01*
X54484038Y-85103343D01*
X54520884Y-85019983D01*
X54573150Y-84948616D01*
X54640340Y-84889572D01*
X54721957Y-84843183D01*
X54817504Y-84809778D01*
X54926486Y-84789689D01*
X55048405Y-84783246D01*
X55109402Y-84785228D01*
G36*
X58013076Y-85137311D02*
G01*
X58310332Y-85461898D01*
X58312953Y-85137311D01*
X58315574Y-84812723D01*
X58643365Y-84812723D01*
X58643365Y-86333741D01*
X58315303Y-86333741D01*
X58315303Y-85871244D01*
X58198493Y-85748657D01*
X58081682Y-85626069D01*
X57885002Y-85963557D01*
X57874261Y-85981983D01*
X57831012Y-86056040D01*
X57790824Y-86124658D01*
X57754852Y-86185878D01*
X57724249Y-86237741D01*
X57700172Y-86278289D01*
X57683774Y-86305564D01*
X57676212Y-86317607D01*
X57671530Y-86322332D01*
X57662079Y-86326720D01*
X57646042Y-86329732D01*
X57620760Y-86331541D01*
X57583576Y-86332318D01*
X57531832Y-86332236D01*
X57462870Y-86331469D01*
X57261638Y-86328770D01*
X57560062Y-85868341D01*
X57858485Y-85407911D01*
X57796111Y-85339629D01*
X57789186Y-85332111D01*
X57761925Y-85303038D01*
X57723964Y-85263034D01*
X57677615Y-85214514D01*
X57625190Y-85159897D01*
X57569002Y-85101598D01*
X57511363Y-85042035D01*
X57288990Y-84812723D01*
X57715821Y-84812723D01*
X58013076Y-85137311D01*
G37*
X58013076Y-85137311D02*
X58310332Y-85461898D01*
X58312953Y-85137311D01*
X58315574Y-84812723D01*
X58643365Y-84812723D01*
X58643365Y-86333741D01*
X58315303Y-86333741D01*
X58315303Y-85871244D01*
X58198493Y-85748657D01*
X58081682Y-85626069D01*
X57885002Y-85963557D01*
X57874261Y-85981983D01*
X57831012Y-86056040D01*
X57790824Y-86124658D01*
X57754852Y-86185878D01*
X57724249Y-86237741D01*
X57700172Y-86278289D01*
X57683774Y-86305564D01*
X57676212Y-86317607D01*
X57671530Y-86322332D01*
X57662079Y-86326720D01*
X57646042Y-86329732D01*
X57620760Y-86331541D01*
X57583576Y-86332318D01*
X57531832Y-86332236D01*
X57462870Y-86331469D01*
X57261638Y-86328770D01*
X57560062Y-85868341D01*
X57858485Y-85407911D01*
X57796111Y-85339629D01*
X57789186Y-85332111D01*
X57761925Y-85303038D01*
X57723964Y-85263034D01*
X57677615Y-85214514D01*
X57625190Y-85159897D01*
X57569002Y-85101598D01*
X57511363Y-85042035D01*
X57288990Y-84812723D01*
X57715821Y-84812723D01*
X58013076Y-85137311D01*
G36*
X56652622Y-86331070D02*
G01*
X56546613Y-86329953D01*
X56450160Y-86328723D01*
X56369822Y-86327283D01*
X56303651Y-86325452D01*
X56249694Y-86323048D01*
X56206002Y-86319890D01*
X56170624Y-86315794D01*
X56141610Y-86310580D01*
X56117009Y-86304066D01*
X56094872Y-86296070D01*
X56073247Y-86286409D01*
X56050185Y-86274903D01*
X56043311Y-86271263D01*
X55985074Y-86231023D01*
X55931777Y-86178742D01*
X55890500Y-86121233D01*
X55885681Y-86112553D01*
X55850967Y-86031034D01*
X55833087Y-85948101D01*
X55831382Y-85866195D01*
X55832275Y-85861123D01*
X56160737Y-85861123D01*
X56162885Y-85912373D01*
X56178176Y-85961547D01*
X56206539Y-86005415D01*
X56247901Y-86040741D01*
X56302191Y-86064294D01*
X56303977Y-86064740D01*
X56329280Y-86068179D01*
X56371231Y-86071064D01*
X56426944Y-86073277D01*
X56493535Y-86074699D01*
X56568121Y-86075212D01*
X56794285Y-86075267D01*
X56794285Y-85675304D01*
X56563150Y-85680300D01*
X56546230Y-85680690D01*
X56473271Y-85682955D01*
X56408697Y-85685900D01*
X56355383Y-85689346D01*
X56316203Y-85693115D01*
X56294032Y-85697029D01*
X56285012Y-85700033D01*
X56233869Y-85727253D01*
X56196157Y-85765330D01*
X56171803Y-85811031D01*
X56160737Y-85861123D01*
X55832275Y-85861123D01*
X55845195Y-85787758D01*
X55873867Y-85715233D01*
X55916739Y-85651061D01*
X55973154Y-85597685D01*
X56042454Y-85557546D01*
X56067891Y-85545737D01*
X56089752Y-85533688D01*
X56098225Y-85526266D01*
X56098194Y-85525865D01*
X56089460Y-85516460D01*
X56069864Y-85504312D01*
X56051834Y-85492778D01*
X56016565Y-85461078D01*
X55981090Y-85419867D01*
X55950078Y-85374835D01*
X55928200Y-85331675D01*
X55918086Y-85301797D01*
X55908754Y-85253550D01*
X55907563Y-85229440D01*
X56219657Y-85229440D01*
X56219737Y-85273724D01*
X56227630Y-85309783D01*
X56231558Y-85318280D01*
X56261638Y-85357892D01*
X56305045Y-85389193D01*
X56356574Y-85408209D01*
X56381776Y-85411582D01*
X56423263Y-85414609D01*
X56476400Y-85417003D01*
X56537010Y-85418576D01*
X56600919Y-85419142D01*
X56794285Y-85419142D01*
X56794285Y-85069853D01*
X56568121Y-85073010D01*
X56546097Y-85073327D01*
X56476844Y-85074540D01*
X56423846Y-85076018D01*
X56384249Y-85078008D01*
X56355201Y-85080759D01*
X56333851Y-85084517D01*
X56317346Y-85089532D01*
X56302833Y-85096050D01*
X56295387Y-85100117D01*
X56265869Y-85120890D01*
X56244037Y-85142859D01*
X56239627Y-85149802D01*
X56226562Y-85185332D01*
X56219657Y-85229440D01*
X55907563Y-85229440D01*
X55905866Y-85195072D01*
X55906583Y-85155775D01*
X55910612Y-85120368D01*
X55919856Y-85088374D01*
X55936182Y-85050924D01*
X55959184Y-85007058D01*
X56000204Y-84949391D01*
X56049531Y-84904463D01*
X56111358Y-84867893D01*
X56129581Y-84859377D01*
X56157471Y-84848107D01*
X56187204Y-84838780D01*
X56220783Y-84831218D01*
X56260213Y-84825242D01*
X56307498Y-84820675D01*
X56364642Y-84817337D01*
X56433649Y-84815051D01*
X56516524Y-84813639D01*
X56615270Y-84812923D01*
X56731891Y-84812723D01*
X57112407Y-84812723D01*
X57112407Y-86335710D01*
X56652622Y-86331070D01*
G37*
X56652622Y-86331070D02*
X56546613Y-86329953D01*
X56450160Y-86328723D01*
X56369822Y-86327283D01*
X56303651Y-86325452D01*
X56249694Y-86323048D01*
X56206002Y-86319890D01*
X56170624Y-86315794D01*
X56141610Y-86310580D01*
X56117009Y-86304066D01*
X56094872Y-86296070D01*
X56073247Y-86286409D01*
X56050185Y-86274903D01*
X56043311Y-86271263D01*
X55985074Y-86231023D01*
X55931777Y-86178742D01*
X55890500Y-86121233D01*
X55885681Y-86112553D01*
X55850967Y-86031034D01*
X55833087Y-85948101D01*
X55831382Y-85866195D01*
X55832275Y-85861123D01*
X56160737Y-85861123D01*
X56162885Y-85912373D01*
X56178176Y-85961547D01*
X56206539Y-86005415D01*
X56247901Y-86040741D01*
X56302191Y-86064294D01*
X56303977Y-86064740D01*
X56329280Y-86068179D01*
X56371231Y-86071064D01*
X56426944Y-86073277D01*
X56493535Y-86074699D01*
X56568121Y-86075212D01*
X56794285Y-86075267D01*
X56794285Y-85675304D01*
X56563150Y-85680300D01*
X56546230Y-85680690D01*
X56473271Y-85682955D01*
X56408697Y-85685900D01*
X56355383Y-85689346D01*
X56316203Y-85693115D01*
X56294032Y-85697029D01*
X56285012Y-85700033D01*
X56233869Y-85727253D01*
X56196157Y-85765330D01*
X56171803Y-85811031D01*
X56160737Y-85861123D01*
X55832275Y-85861123D01*
X55845195Y-85787758D01*
X55873867Y-85715233D01*
X55916739Y-85651061D01*
X55973154Y-85597685D01*
X56042454Y-85557546D01*
X56067891Y-85545737D01*
X56089752Y-85533688D01*
X56098225Y-85526266D01*
X56098194Y-85525865D01*
X56089460Y-85516460D01*
X56069864Y-85504312D01*
X56051834Y-85492778D01*
X56016565Y-85461078D01*
X55981090Y-85419867D01*
X55950078Y-85374835D01*
X55928200Y-85331675D01*
X55918086Y-85301797D01*
X55908754Y-85253550D01*
X55907563Y-85229440D01*
X56219657Y-85229440D01*
X56219737Y-85273724D01*
X56227630Y-85309783D01*
X56231558Y-85318280D01*
X56261638Y-85357892D01*
X56305045Y-85389193D01*
X56356574Y-85408209D01*
X56381776Y-85411582D01*
X56423263Y-85414609D01*
X56476400Y-85417003D01*
X56537010Y-85418576D01*
X56600919Y-85419142D01*
X56794285Y-85419142D01*
X56794285Y-85069853D01*
X56568121Y-85073010D01*
X56546097Y-85073327D01*
X56476844Y-85074540D01*
X56423846Y-85076018D01*
X56384249Y-85078008D01*
X56355201Y-85080759D01*
X56333851Y-85084517D01*
X56317346Y-85089532D01*
X56302833Y-85096050D01*
X56295387Y-85100117D01*
X56265869Y-85120890D01*
X56244037Y-85142859D01*
X56239627Y-85149802D01*
X56226562Y-85185332D01*
X56219657Y-85229440D01*
X55907563Y-85229440D01*
X55905866Y-85195072D01*
X55906583Y-85155775D01*
X55910612Y-85120368D01*
X55919856Y-85088374D01*
X55936182Y-85050924D01*
X55959184Y-85007058D01*
X56000204Y-84949391D01*
X56049531Y-84904463D01*
X56111358Y-84867893D01*
X56129581Y-84859377D01*
X56157471Y-84848107D01*
X56187204Y-84838780D01*
X56220783Y-84831218D01*
X56260213Y-84825242D01*
X56307498Y-84820675D01*
X56364642Y-84817337D01*
X56433649Y-84815051D01*
X56516524Y-84813639D01*
X56615270Y-84812923D01*
X56731891Y-84812723D01*
X57112407Y-84812723D01*
X57112407Y-86335710D01*
X56652622Y-86331070D01*
D13*
%TO.C,C4*%
X49964000Y-95948621D02*
X51560000Y-95948621D01*
X53640000Y-96268621D02*
X54980000Y-96268621D01*
X49884000Y-95828621D02*
X51560000Y-95828621D01*
X53640000Y-94507621D02*
X55801000Y-94507621D01*
X53640000Y-94627621D02*
X55782000Y-94627621D01*
X53640000Y-96308621D02*
X54943000Y-96308621D01*
X49372000Y-94187621D02*
X55828000Y-94187621D01*
X53640000Y-96068621D02*
X55148000Y-96068621D01*
X53640000Y-95748621D02*
X55366000Y-95748621D01*
X53640000Y-95788621D02*
X55342000Y-95788621D01*
X53640000Y-95668621D02*
X55412000Y-95668621D01*
X49385000Y-94387621D02*
X51560000Y-94387621D01*
X49418000Y-94627621D02*
X51560000Y-94627621D01*
X49744000Y-95588621D02*
X51560000Y-95588621D01*
X49450000Y-94788621D02*
X51560000Y-94788621D01*
X50886000Y-96828621D02*
X54314000Y-96828621D01*
X49630000Y-95348621D02*
X51560000Y-95348621D01*
X53640000Y-94747621D02*
X55759000Y-94747621D01*
X53640000Y-95388621D02*
X55552000Y-95388621D01*
X49376000Y-94267621D02*
X55824000Y-94267621D01*
X50257000Y-96308621D02*
X51560000Y-96308621D01*
X50084000Y-96108621D02*
X51560000Y-96108621D01*
X51168000Y-96988621D02*
X54032000Y-96988621D01*
X53640000Y-95948621D02*
X55236000Y-95948621D01*
X49567000Y-95188621D02*
X51560000Y-95188621D01*
X51019000Y-96908621D02*
X54181000Y-96908621D01*
X49553000Y-95148621D02*
X51560000Y-95148621D01*
X53640000Y-95588621D02*
X55456000Y-95588621D01*
X49425000Y-94667621D02*
X51560000Y-94667621D01*
X50220000Y-96268621D02*
X51560000Y-96268621D01*
X53640000Y-95108621D02*
X55661000Y-95108621D01*
X53640000Y-94707621D02*
X55767000Y-94707621D01*
X51250000Y-97028621D02*
X53950000Y-97028621D01*
X49370000Y-94067621D02*
X55830000Y-94067621D01*
X49382000Y-94347621D02*
X51560000Y-94347621D01*
X49526000Y-95068621D02*
X51560000Y-95068621D01*
X53640000Y-94908621D02*
X55721000Y-94908621D01*
X49373000Y-94227621D02*
X55827000Y-94227621D01*
X50295000Y-96348621D02*
X51560000Y-96348621D01*
X53640000Y-95348621D02*
X55570000Y-95348621D01*
X49502000Y-94988621D02*
X51560000Y-94988621D01*
X53640000Y-95468621D02*
X55516000Y-95468621D01*
X50116000Y-96148621D02*
X51560000Y-96148621D01*
X53640000Y-95908621D02*
X55264000Y-95908621D01*
X53640000Y-95268621D02*
X55602000Y-95268621D01*
X49539000Y-95108621D02*
X51560000Y-95108621D01*
X51338000Y-97068621D02*
X53862000Y-97068621D01*
X49370000Y-94107621D02*
X55830000Y-94107621D01*
X53640000Y-95308621D02*
X55586000Y-95308621D01*
X50766000Y-96748621D02*
X54434000Y-96748621D01*
X49405000Y-94547621D02*
X51560000Y-94547621D01*
X53640000Y-94788621D02*
X55750000Y-94788621D01*
X53640000Y-95708621D02*
X55390000Y-95708621D01*
X53640000Y-95508621D02*
X55496000Y-95508621D01*
X49684000Y-95468621D02*
X51560000Y-95468621D01*
X53640000Y-94868621D02*
X55731000Y-94868621D01*
X50710000Y-96708621D02*
X54490000Y-96708621D01*
X50463000Y-96508621D02*
X54737000Y-96508621D01*
X50761000Y-90567380D02*
X50761000Y-91197380D01*
X49666000Y-95428621D02*
X51560000Y-95428621D01*
X49858000Y-95788621D02*
X51560000Y-95788621D01*
X49648000Y-95388621D02*
X51560000Y-95388621D01*
X49936000Y-95908621D02*
X51560000Y-95908621D01*
X49479000Y-94908621D02*
X51560000Y-94908621D01*
X53640000Y-95828621D02*
X55316000Y-95828621D01*
X50418000Y-96468621D02*
X54782000Y-96468621D01*
X49766000Y-95628621D02*
X51560000Y-95628621D01*
X50335000Y-96388621D02*
X54865000Y-96388621D01*
X53640000Y-94948621D02*
X55710000Y-94948621D01*
X49399000Y-94507621D02*
X51560000Y-94507621D01*
X50052000Y-96068621D02*
X51560000Y-96068621D01*
X53640000Y-94347621D02*
X55818000Y-94347621D01*
X51435000Y-97108621D02*
X53765000Y-97108621D01*
X50605000Y-96628621D02*
X54595000Y-96628621D01*
X49469000Y-94868621D02*
X51560000Y-94868621D01*
X49370000Y-94147621D02*
X55830000Y-94147621D01*
X53640000Y-95628621D02*
X55434000Y-95628621D01*
X53640000Y-94467621D02*
X55806000Y-94467621D01*
X51541000Y-97148621D02*
X53659000Y-97148621D01*
X50656000Y-96668621D02*
X54544000Y-96668621D01*
X49582000Y-95228621D02*
X51560000Y-95228621D01*
X49834000Y-95748621D02*
X51560000Y-95748621D01*
X49459000Y-94828621D02*
X51560000Y-94828621D01*
X49441000Y-94747621D02*
X51560000Y-94747621D01*
X49704000Y-95508621D02*
X51560000Y-95508621D01*
X50150000Y-96188621D02*
X51560000Y-96188621D01*
X51091000Y-96948621D02*
X54109000Y-96948621D01*
X53640000Y-95148621D02*
X55647000Y-95148621D01*
X53640000Y-96228621D02*
X55016000Y-96228621D01*
X50824000Y-96788621D02*
X54376000Y-96788621D01*
X53640000Y-95028621D02*
X55686000Y-95028621D01*
X49598000Y-95268621D02*
X51560000Y-95268621D01*
X49394000Y-94467621D02*
X51560000Y-94467621D01*
X53640000Y-95228621D02*
X55618000Y-95228621D01*
X49514000Y-95028621D02*
X51560000Y-95028621D01*
X49411000Y-94587621D02*
X51560000Y-94587621D01*
X52198000Y-97308621D02*
X53002000Y-97308621D01*
X53640000Y-95988621D02*
X55207000Y-95988621D01*
X49724000Y-95548621D02*
X51560000Y-95548621D01*
X53640000Y-95868621D02*
X55290000Y-95868621D01*
X53640000Y-94387621D02*
X55815000Y-94387621D01*
X53640000Y-94587621D02*
X55789000Y-94587621D01*
X51967000Y-97268621D02*
X53233000Y-97268621D01*
X53640000Y-96148621D02*
X55084000Y-96148621D01*
X53640000Y-96188621D02*
X55050000Y-96188621D01*
X50446000Y-90882380D02*
X51076000Y-90882380D01*
X53640000Y-96348621D02*
X54905000Y-96348621D01*
X50556000Y-96588621D02*
X54644000Y-96588621D01*
X49378000Y-94307621D02*
X51560000Y-94307621D01*
X49433000Y-94707621D02*
X51560000Y-94707621D01*
X49993000Y-95988621D02*
X51560000Y-95988621D01*
X53640000Y-94828621D02*
X55741000Y-94828621D01*
X51660000Y-97188621D02*
X53540000Y-97188621D01*
X50184000Y-96228621D02*
X51560000Y-96228621D01*
X49490000Y-94948621D02*
X51560000Y-94948621D01*
X51798000Y-97228621D02*
X53402000Y-97228621D01*
X49614000Y-95308621D02*
X51560000Y-95308621D01*
X49810000Y-95708621D02*
X51560000Y-95708621D01*
X50022000Y-96028621D02*
X51560000Y-96028621D01*
X53640000Y-95548621D02*
X55476000Y-95548621D01*
X50376000Y-96428621D02*
X54824000Y-96428621D01*
X53640000Y-94427621D02*
X55811000Y-94427621D01*
X53640000Y-96028621D02*
X55178000Y-96028621D01*
X53640000Y-96108621D02*
X55116000Y-96108621D01*
X50950000Y-96868621D02*
X54250000Y-96868621D01*
X49788000Y-95668621D02*
X51560000Y-95668621D01*
X53640000Y-94667621D02*
X55775000Y-94667621D01*
X50508000Y-96548621D02*
X54692000Y-96548621D01*
X49910000Y-95868621D02*
X51560000Y-95868621D01*
X53640000Y-94307621D02*
X55822000Y-94307621D01*
X53640000Y-95428621D02*
X55534000Y-95428621D01*
X53640000Y-95188621D02*
X55633000Y-95188621D01*
X53640000Y-94988621D02*
X55698000Y-94988621D01*
X53640000Y-95068621D02*
X55674000Y-95068621D01*
X49389000Y-94427621D02*
X51560000Y-94427621D01*
X53640000Y-94547621D02*
X55795000Y-94547621D01*
X55870000Y-94067621D02*
G75*
G03*
X55870000Y-94067621I-3270000J0D01*
G01*
%TD*%
%LPC*%
D14*
%TO.C,J2*%
X64897000Y-78735000D03*
D15*
X64897000Y-81275000D03*
%TD*%
D14*
%TO.C,J1*%
X49911000Y-88514000D03*
D15*
X49911000Y-91054000D03*
%TD*%
D16*
%TO.C,ref1*%
X46990000Y-80010000D03*
%TD*%
D17*
%TO.C,C4*%
X52600000Y-92817621D03*
D18*
X52600000Y-95317621D03*
%TD*%
M02*
