%TF.GenerationSoftware,KiCad,Pcbnew,6.0.6-1.fc35*%
%TF.CreationDate,2022-07-22T15:55:32+02:00*%
%TF.ProjectId,NE555_OC,4e453535-355f-44f4-932e-6b696361645f,rev?*%
%TF.SameCoordinates,Original*%
%TF.FileFunction,Soldermask,Top*%
%TF.FilePolarity,Negative*%
%FSLAX46Y46*%
G04 Gerber Fmt 4.6, Leading zero omitted, Abs format (unit mm)*
G04 Created by KiCad (PCBNEW 6.0.6-1.fc35) date 2022-07-22 15:55:32*
%MOMM*%
%LPD*%
G01*
G04 APERTURE LIST*
G04 Aperture macros list*
%AMRoundRect*
0 Rectangle with rounded corners*
0 $1 Rounding radius*
0 $2 $3 $4 $5 $6 $7 $8 $9 X,Y pos of 4 corners*
0 Add a 4 corners polygon primitive as box body*
4,1,4,$2,$3,$4,$5,$6,$7,$8,$9,$2,$3,0*
0 Add four circle primitives for the rounded corners*
1,1,$1+$1,$2,$3*
1,1,$1+$1,$4,$5*
1,1,$1+$1,$6,$7*
1,1,$1+$1,$8,$9*
0 Add four rect primitives between the rounded corners*
20,1,$1+$1,$2,$3,$4,$5,0*
20,1,$1+$1,$4,$5,$6,$7,0*
20,1,$1+$1,$6,$7,$8,$9,0*
20,1,$1+$1,$8,$9,$2,$3,0*%
G04 Aperture macros list end*
%ADD10RoundRect,0.300000X0.250000X0.475000X-0.250000X0.475000X-0.250000X-0.475000X0.250000X-0.475000X0*%
%ADD11RoundRect,0.050000X-0.650000X-0.850000X0.650000X-0.850000X0.650000X0.850000X-0.650000X0.850000X0*%
%ADD12RoundRect,0.300000X-0.250000X-0.475000X0.250000X-0.475000X0.250000X0.475000X-0.250000X0.475000X0*%
%ADD13RoundRect,0.050000X0.850000X-0.650000X0.850000X0.650000X-0.850000X0.650000X-0.850000X-0.650000X0*%
%ADD14RoundRect,0.050000X-0.850000X-0.850000X0.850000X-0.850000X0.850000X0.850000X-0.850000X0.850000X0*%
%ADD15O,1.800000X1.800000*%
%ADD16RoundRect,0.050000X0.450000X0.400000X-0.450000X0.400000X-0.450000X-0.400000X0.450000X-0.400000X0*%
%ADD17RoundRect,0.200000X-0.825000X-0.150000X0.825000X-0.150000X0.825000X0.150000X-0.825000X0.150000X0*%
%ADD18RoundRect,0.300000X-0.625000X0.312500X-0.625000X-0.312500X0.625000X-0.312500X0.625000X0.312500X0*%
%ADD19RoundRect,0.050000X0.750000X-1.000000X0.750000X1.000000X-0.750000X1.000000X-0.750000X-1.000000X0*%
%ADD20RoundRect,0.050000X1.900000X-1.000000X1.900000X1.000000X-1.900000X1.000000X-1.900000X-1.000000X0*%
%ADD21C,5.700000*%
%ADD22RoundRect,0.300000X0.625000X-0.312500X0.625000X0.312500X-0.625000X0.312500X-0.625000X-0.312500X0*%
%ADD23RoundRect,0.300000X0.312500X0.625000X-0.312500X0.625000X-0.312500X-0.625000X0.312500X-0.625000X0*%
%ADD24RoundRect,0.050000X-0.800000X0.800000X-0.800000X-0.800000X0.800000X-0.800000X0.800000X0.800000X0*%
%ADD25C,1.700000*%
G04 APERTURE END LIST*
D10*
%TO.C,C2*%
X59178000Y-90297000D03*
X57278000Y-90297000D03*
%TD*%
D11*
%TO.C,D3*%
X61877000Y-86741000D03*
X65377000Y-86741000D03*
%TD*%
D12*
%TO.C,C1*%
X55565000Y-88011000D03*
X57465000Y-88011000D03*
%TD*%
D13*
%TO.C,D1*%
X55180000Y-95857000D03*
X55180000Y-92357000D03*
%TD*%
D14*
%TO.C,J2*%
X64897000Y-78735000D03*
D15*
X64897000Y-81275000D03*
%TD*%
D14*
%TO.C,J1*%
X49911000Y-88514000D03*
D15*
X49911000Y-91054000D03*
%TD*%
D16*
%TO.C,Q1*%
X62316000Y-82026000D03*
X62316000Y-80126000D03*
X60316000Y-81076000D03*
%TD*%
D17*
%TO.C,U1*%
X57658000Y-92202000D03*
X57658000Y-93472000D03*
X57658000Y-94742000D03*
X57658000Y-96012000D03*
X62608000Y-96012000D03*
X62608000Y-94742000D03*
X62608000Y-93472000D03*
X62608000Y-92202000D03*
%TD*%
D11*
%TO.C,D2*%
X61905000Y-84328000D03*
X65405000Y-84328000D03*
%TD*%
D18*
%TO.C,R2*%
X65152000Y-92263500D03*
X65152000Y-95188500D03*
%TD*%
D19*
%TO.C,U2*%
X51675000Y-84557000D03*
X53975000Y-84557000D03*
D20*
X53975000Y-78257000D03*
D19*
X56275000Y-84557000D03*
%TD*%
D21*
%TO.C,ref1*%
X46990000Y-80010000D03*
%TD*%
D22*
%TO.C,R3*%
X59690000Y-86806500D03*
X59690000Y-83881500D03*
%TD*%
D12*
%TO.C,C3*%
X53406000Y-90170000D03*
X55306000Y-90170000D03*
%TD*%
D23*
%TO.C,R1*%
X63820500Y-90170000D03*
X60895500Y-90170000D03*
%TD*%
D24*
%TO.C,C4*%
X53136800Y-92848421D03*
D25*
X53136800Y-95348421D03*
%TD*%
M02*
