%TF.GenerationSoftware,KiCad,Pcbnew,6.0.6-1.fc35*%
%TF.CreationDate,2022-07-22T15:55:32+02:00*%
%TF.ProjectId,NE555_OC,4e453535-355f-44f4-932e-6b696361645f,rev?*%
%TF.SameCoordinates,Original*%
%TF.FileFunction,Legend,Bot*%
%TF.FilePolarity,Positive*%
%FSLAX46Y46*%
G04 Gerber Fmt 4.6, Leading zero omitted, Abs format (unit mm)*
G04 Created by KiCad (PCBNEW 6.0.6-1.fc35) date 2022-07-22 15:55:32*
%MOMM*%
%LPD*%
G01*
G04 APERTURE LIST*
G04 Aperture macros list*
%AMRoundRect*
0 Rectangle with rounded corners*
0 $1 Rounding radius*
0 $2 $3 $4 $5 $6 $7 $8 $9 X,Y pos of 4 corners*
0 Add a 4 corners polygon primitive as box body*
4,1,4,$2,$3,$4,$5,$6,$7,$8,$9,$2,$3,0*
0 Add four circle primitives for the rounded corners*
1,1,$1+$1,$2,$3*
1,1,$1+$1,$4,$5*
1,1,$1+$1,$6,$7*
1,1,$1+$1,$8,$9*
0 Add four rect primitives between the rounded corners*
20,1,$1+$1,$2,$3,$4,$5,0*
20,1,$1+$1,$4,$5,$6,$7,0*
20,1,$1+$1,$6,$7,$8,$9,0*
20,1,$1+$1,$8,$9,$2,$3,0*%
G04 Aperture macros list end*
%ADD10C,0.150000*%
%ADD11C,0.220000*%
%ADD12C,0.120000*%
%ADD13RoundRect,0.050000X-0.850000X-0.850000X0.850000X-0.850000X0.850000X0.850000X-0.850000X0.850000X0*%
%ADD14O,1.800000X1.800000*%
%ADD15C,5.700000*%
%ADD16RoundRect,0.050000X-0.800000X0.800000X-0.800000X-0.800000X0.800000X-0.800000X0.800000X0.800000X0*%
%ADD17C,1.700000*%
G04 APERTURE END LIST*
D10*
X65989200Y-90830400D02*
X65989200Y-97383600D01*
X53238400Y-90830400D02*
X65989200Y-90830400D01*
X65989200Y-97383600D02*
X53340000Y-97383600D01*
D11*
X63448000Y-83861571D02*
X63448000Y-82361571D01*
X62590857Y-83861571D01*
X62590857Y-82361571D01*
X61876571Y-83075857D02*
X61376571Y-83075857D01*
X61162285Y-83861571D02*
X61876571Y-83861571D01*
X61876571Y-82361571D01*
X61162285Y-82361571D01*
X59805142Y-82361571D02*
X60519428Y-82361571D01*
X60590857Y-83075857D01*
X60519428Y-83004428D01*
X60376571Y-82933000D01*
X60019428Y-82933000D01*
X59876571Y-83004428D01*
X59805142Y-83075857D01*
X59733714Y-83218714D01*
X59733714Y-83575857D01*
X59805142Y-83718714D01*
X59876571Y-83790142D01*
X60019428Y-83861571D01*
X60376571Y-83861571D01*
X60519428Y-83790142D01*
X60590857Y-83718714D01*
X58376571Y-82361571D02*
X59090857Y-82361571D01*
X59162285Y-83075857D01*
X59090857Y-83004428D01*
X58948000Y-82933000D01*
X58590857Y-82933000D01*
X58448000Y-83004428D01*
X58376571Y-83075857D01*
X58305142Y-83218714D01*
X58305142Y-83575857D01*
X58376571Y-83718714D01*
X58448000Y-83790142D01*
X58590857Y-83861571D01*
X58948000Y-83861571D01*
X59090857Y-83790142D01*
X59162285Y-83718714D01*
X56948000Y-82361571D02*
X57662285Y-82361571D01*
X57733714Y-83075857D01*
X57662285Y-83004428D01*
X57519428Y-82933000D01*
X57162285Y-82933000D01*
X57019428Y-83004428D01*
X56948000Y-83075857D01*
X56876571Y-83218714D01*
X56876571Y-83575857D01*
X56948000Y-83718714D01*
X57019428Y-83790142D01*
X57162285Y-83861571D01*
X57519428Y-83861571D01*
X57662285Y-83790142D01*
X57733714Y-83718714D01*
X63698000Y-84776571D02*
X63412285Y-84776571D01*
X63269428Y-84848000D01*
X63126571Y-84990857D01*
X63055142Y-85276571D01*
X63055142Y-85776571D01*
X63126571Y-86062285D01*
X63269428Y-86205142D01*
X63412285Y-86276571D01*
X63698000Y-86276571D01*
X63840857Y-86205142D01*
X63983714Y-86062285D01*
X64055142Y-85776571D01*
X64055142Y-85276571D01*
X63983714Y-84990857D01*
X63840857Y-84848000D01*
X63698000Y-84776571D01*
X61555142Y-86133714D02*
X61626571Y-86205142D01*
X61840857Y-86276571D01*
X61983714Y-86276571D01*
X62198000Y-86205142D01*
X62340857Y-86062285D01*
X62412285Y-85919428D01*
X62483714Y-85633714D01*
X62483714Y-85419428D01*
X62412285Y-85133714D01*
X62340857Y-84990857D01*
X62198000Y-84848000D01*
X61983714Y-84776571D01*
X61840857Y-84776571D01*
X61626571Y-84848000D01*
X61555142Y-84919428D01*
X58912285Y-86276571D02*
X59412285Y-85562285D01*
X59769428Y-86276571D02*
X59769428Y-84776571D01*
X59198000Y-84776571D01*
X59055142Y-84848000D01*
X58983714Y-84919428D01*
X58912285Y-85062285D01*
X58912285Y-85276571D01*
X58983714Y-85419428D01*
X59055142Y-85490857D01*
X59198000Y-85562285D01*
X59769428Y-85562285D01*
X58269428Y-85490857D02*
X57769428Y-85490857D01*
X57555142Y-86276571D02*
X58269428Y-86276571D01*
X58269428Y-84776571D01*
X57555142Y-84776571D01*
X56198000Y-86276571D02*
X56912285Y-86276571D01*
X56912285Y-84776571D01*
X65483714Y-88691571D02*
X65483714Y-87191571D01*
X64626571Y-88691571D02*
X65269428Y-87834428D01*
X64626571Y-87191571D02*
X65483714Y-88048714D01*
X63483714Y-87905857D02*
X63269428Y-87977285D01*
X63198000Y-88048714D01*
X63126571Y-88191571D01*
X63126571Y-88405857D01*
X63198000Y-88548714D01*
X63269428Y-88620142D01*
X63412285Y-88691571D01*
X63983714Y-88691571D01*
X63983714Y-87191571D01*
X63483714Y-87191571D01*
X63340857Y-87263000D01*
X63269428Y-87334428D01*
X63198000Y-87477285D01*
X63198000Y-87620142D01*
X63269428Y-87763000D01*
X63340857Y-87834428D01*
X63483714Y-87905857D01*
X63983714Y-87905857D01*
X62555142Y-88620142D02*
X62340857Y-88691571D01*
X61983714Y-88691571D01*
X61840857Y-88620142D01*
X61769428Y-88548714D01*
X61698000Y-88405857D01*
X61698000Y-88263000D01*
X61769428Y-88120142D01*
X61840857Y-88048714D01*
X61983714Y-87977285D01*
X62269428Y-87905857D01*
X62412285Y-87834428D01*
X62483714Y-87763000D01*
X62555142Y-87620142D01*
X62555142Y-87477285D01*
X62483714Y-87334428D01*
X62412285Y-87263000D01*
X62269428Y-87191571D01*
X61912285Y-87191571D01*
X61698000Y-87263000D01*
X59983714Y-87334428D02*
X59912285Y-87263000D01*
X59769428Y-87191571D01*
X59412285Y-87191571D01*
X59269428Y-87263000D01*
X59198000Y-87334428D01*
X59126571Y-87477285D01*
X59126571Y-87620142D01*
X59198000Y-87834428D01*
X60055142Y-88691571D01*
X59126571Y-88691571D01*
X58198000Y-87191571D02*
X58055142Y-87191571D01*
X57912285Y-87263000D01*
X57840857Y-87334428D01*
X57769428Y-87477285D01*
X57698000Y-87763000D01*
X57698000Y-88120142D01*
X57769428Y-88405857D01*
X57840857Y-88548714D01*
X57912285Y-88620142D01*
X58055142Y-88691571D01*
X58198000Y-88691571D01*
X58340857Y-88620142D01*
X58412285Y-88548714D01*
X58483714Y-88405857D01*
X58555142Y-88120142D01*
X58555142Y-87763000D01*
X58483714Y-87477285D01*
X58412285Y-87334428D01*
X58340857Y-87263000D01*
X58198000Y-87191571D01*
X57126571Y-87334428D02*
X57055142Y-87263000D01*
X56912285Y-87191571D01*
X56555142Y-87191571D01*
X56412285Y-87263000D01*
X56340857Y-87334428D01*
X56269428Y-87477285D01*
X56269428Y-87620142D01*
X56340857Y-87834428D01*
X57198000Y-88691571D01*
X56269428Y-88691571D01*
X55698000Y-87334428D02*
X55626571Y-87263000D01*
X55483714Y-87191571D01*
X55126571Y-87191571D01*
X54983714Y-87263000D01*
X54912285Y-87334428D01*
X54840857Y-87477285D01*
X54840857Y-87620142D01*
X54912285Y-87834428D01*
X55769428Y-88691571D01*
X54840857Y-88691571D01*
D10*
%TO.C,C4*%
X49093942Y-93931754D02*
X49141561Y-93884135D01*
X49189180Y-93741278D01*
X49189180Y-93646040D01*
X49141561Y-93503182D01*
X49046323Y-93407944D01*
X48951085Y-93360325D01*
X48760609Y-93312706D01*
X48617752Y-93312706D01*
X48427276Y-93360325D01*
X48332038Y-93407944D01*
X48236800Y-93503182D01*
X48189180Y-93646040D01*
X48189180Y-93741278D01*
X48236800Y-93884135D01*
X48284419Y-93931754D01*
X48522514Y-94788897D02*
X49189180Y-94788897D01*
X48141561Y-94550801D02*
X48855847Y-94312706D01*
X48855847Y-94931754D01*
D12*
X50500800Y-95979421D02*
X52096800Y-95979421D01*
X54176800Y-96299421D02*
X55516800Y-96299421D01*
X50420800Y-95859421D02*
X52096800Y-95859421D01*
X54176800Y-94538421D02*
X56337800Y-94538421D01*
X54176800Y-94658421D02*
X56318800Y-94658421D01*
X54176800Y-96339421D02*
X55479800Y-96339421D01*
X49908800Y-94218421D02*
X56364800Y-94218421D01*
X54176800Y-96099421D02*
X55684800Y-96099421D01*
X54176800Y-95779421D02*
X55902800Y-95779421D01*
X54176800Y-95819421D02*
X55878800Y-95819421D01*
X54176800Y-95699421D02*
X55948800Y-95699421D01*
X49921800Y-94418421D02*
X52096800Y-94418421D01*
X49954800Y-94658421D02*
X52096800Y-94658421D01*
X50280800Y-95619421D02*
X52096800Y-95619421D01*
X49986800Y-94819421D02*
X52096800Y-94819421D01*
X51422800Y-96859421D02*
X54850800Y-96859421D01*
X50166800Y-95379421D02*
X52096800Y-95379421D01*
X54176800Y-94778421D02*
X56295800Y-94778421D01*
X54176800Y-95419421D02*
X56088800Y-95419421D01*
X49912800Y-94298421D02*
X56360800Y-94298421D01*
X50793800Y-96339421D02*
X52096800Y-96339421D01*
X50620800Y-96139421D02*
X52096800Y-96139421D01*
X51704800Y-97019421D02*
X54568800Y-97019421D01*
X54176800Y-95979421D02*
X55772800Y-95979421D01*
X50103800Y-95219421D02*
X52096800Y-95219421D01*
X51555800Y-96939421D02*
X54717800Y-96939421D01*
X50089800Y-95179421D02*
X52096800Y-95179421D01*
X54176800Y-95619421D02*
X55992800Y-95619421D01*
X49961800Y-94698421D02*
X52096800Y-94698421D01*
X50756800Y-96299421D02*
X52096800Y-96299421D01*
X54176800Y-95139421D02*
X56197800Y-95139421D01*
X54176800Y-94738421D02*
X56303800Y-94738421D01*
X51786800Y-97059421D02*
X54486800Y-97059421D01*
X49906800Y-94098421D02*
X56366800Y-94098421D01*
X49918800Y-94378421D02*
X52096800Y-94378421D01*
X50062800Y-95099421D02*
X52096800Y-95099421D01*
X54176800Y-94939421D02*
X56257800Y-94939421D01*
X49909800Y-94258421D02*
X56363800Y-94258421D01*
X50831800Y-96379421D02*
X52096800Y-96379421D01*
X54176800Y-95379421D02*
X56106800Y-95379421D01*
X50038800Y-95019421D02*
X52096800Y-95019421D01*
X54176800Y-95499421D02*
X56052800Y-95499421D01*
X50652800Y-96179421D02*
X52096800Y-96179421D01*
X54176800Y-95939421D02*
X55800800Y-95939421D01*
X54176800Y-95299421D02*
X56138800Y-95299421D01*
X50075800Y-95139421D02*
X52096800Y-95139421D01*
X51874800Y-97099421D02*
X54398800Y-97099421D01*
X49906800Y-94138421D02*
X56366800Y-94138421D01*
X54176800Y-95339421D02*
X56122800Y-95339421D01*
X51302800Y-96779421D02*
X54970800Y-96779421D01*
X49941800Y-94578421D02*
X52096800Y-94578421D01*
X54176800Y-94819421D02*
X56286800Y-94819421D01*
X54176800Y-95739421D02*
X55926800Y-95739421D01*
X54176800Y-95539421D02*
X56032800Y-95539421D01*
X50220800Y-95499421D02*
X52096800Y-95499421D01*
X54176800Y-94899421D02*
X56267800Y-94899421D01*
X51246800Y-96739421D02*
X55026800Y-96739421D01*
X50999800Y-96539421D02*
X55273800Y-96539421D01*
X51297800Y-90598180D02*
X51297800Y-91228180D01*
X50202800Y-95459421D02*
X52096800Y-95459421D01*
X50394800Y-95819421D02*
X52096800Y-95819421D01*
X50184800Y-95419421D02*
X52096800Y-95419421D01*
X50472800Y-95939421D02*
X52096800Y-95939421D01*
X50015800Y-94939421D02*
X52096800Y-94939421D01*
X54176800Y-95859421D02*
X55852800Y-95859421D01*
X50954800Y-96499421D02*
X55318800Y-96499421D01*
X50302800Y-95659421D02*
X52096800Y-95659421D01*
X50871800Y-96419421D02*
X55401800Y-96419421D01*
X54176800Y-94979421D02*
X56246800Y-94979421D01*
X49935800Y-94538421D02*
X52096800Y-94538421D01*
X50588800Y-96099421D02*
X52096800Y-96099421D01*
X54176800Y-94378421D02*
X56354800Y-94378421D01*
X51971800Y-97139421D02*
X54301800Y-97139421D01*
X51141800Y-96659421D02*
X55131800Y-96659421D01*
X50005800Y-94899421D02*
X52096800Y-94899421D01*
X49906800Y-94178421D02*
X56366800Y-94178421D01*
X54176800Y-95659421D02*
X55970800Y-95659421D01*
X54176800Y-94498421D02*
X56342800Y-94498421D01*
X52077800Y-97179421D02*
X54195800Y-97179421D01*
X51192800Y-96699421D02*
X55080800Y-96699421D01*
X50118800Y-95259421D02*
X52096800Y-95259421D01*
X50370800Y-95779421D02*
X52096800Y-95779421D01*
X49995800Y-94859421D02*
X52096800Y-94859421D01*
X49977800Y-94778421D02*
X52096800Y-94778421D01*
X50240800Y-95539421D02*
X52096800Y-95539421D01*
X50686800Y-96219421D02*
X52096800Y-96219421D01*
X51627800Y-96979421D02*
X54645800Y-96979421D01*
X54176800Y-95179421D02*
X56183800Y-95179421D01*
X54176800Y-96259421D02*
X55552800Y-96259421D01*
X51360800Y-96819421D02*
X54912800Y-96819421D01*
X54176800Y-95059421D02*
X56222800Y-95059421D01*
X50134800Y-95299421D02*
X52096800Y-95299421D01*
X49930800Y-94498421D02*
X52096800Y-94498421D01*
X54176800Y-95259421D02*
X56154800Y-95259421D01*
X50050800Y-95059421D02*
X52096800Y-95059421D01*
X49947800Y-94618421D02*
X52096800Y-94618421D01*
X52734800Y-97339421D02*
X53538800Y-97339421D01*
X54176800Y-96019421D02*
X55743800Y-96019421D01*
X50260800Y-95579421D02*
X52096800Y-95579421D01*
X54176800Y-95899421D02*
X55826800Y-95899421D01*
X54176800Y-94418421D02*
X56351800Y-94418421D01*
X54176800Y-94618421D02*
X56325800Y-94618421D01*
X52503800Y-97299421D02*
X53769800Y-97299421D01*
X54176800Y-96179421D02*
X55620800Y-96179421D01*
X54176800Y-96219421D02*
X55586800Y-96219421D01*
X50982800Y-90913180D02*
X51612800Y-90913180D01*
X54176800Y-96379421D02*
X55441800Y-96379421D01*
X51092800Y-96619421D02*
X55180800Y-96619421D01*
X49914800Y-94338421D02*
X52096800Y-94338421D01*
X49969800Y-94738421D02*
X52096800Y-94738421D01*
X50529800Y-96019421D02*
X52096800Y-96019421D01*
X54176800Y-94859421D02*
X56277800Y-94859421D01*
X52196800Y-97219421D02*
X54076800Y-97219421D01*
X50720800Y-96259421D02*
X52096800Y-96259421D01*
X50026800Y-94979421D02*
X52096800Y-94979421D01*
X52334800Y-97259421D02*
X53938800Y-97259421D01*
X50150800Y-95339421D02*
X52096800Y-95339421D01*
X50346800Y-95739421D02*
X52096800Y-95739421D01*
X50558800Y-96059421D02*
X52096800Y-96059421D01*
X54176800Y-95579421D02*
X56012800Y-95579421D01*
X50912800Y-96459421D02*
X55360800Y-96459421D01*
X54176800Y-94458421D02*
X56347800Y-94458421D01*
X54176800Y-96059421D02*
X55714800Y-96059421D01*
X54176800Y-96139421D02*
X55652800Y-96139421D01*
X51486800Y-96899421D02*
X54786800Y-96899421D01*
X50324800Y-95699421D02*
X52096800Y-95699421D01*
X54176800Y-94698421D02*
X56311800Y-94698421D01*
X51044800Y-96579421D02*
X55228800Y-96579421D01*
X50446800Y-95899421D02*
X52096800Y-95899421D01*
X54176800Y-94338421D02*
X56358800Y-94338421D01*
X54176800Y-95459421D02*
X56070800Y-95459421D01*
X54176800Y-95219421D02*
X56169800Y-95219421D01*
X54176800Y-95019421D02*
X56234800Y-95019421D01*
X54176800Y-95099421D02*
X56210800Y-95099421D01*
X49925800Y-94458421D02*
X52096800Y-94458421D01*
X54176800Y-94578421D02*
X56331800Y-94578421D01*
X56406800Y-94098421D02*
G75*
G03*
X56406800Y-94098421I-3270000J0D01*
G01*
%TD*%
%LPC*%
D13*
%TO.C,J2*%
X64897000Y-78735000D03*
D14*
X64897000Y-81275000D03*
%TD*%
D13*
%TO.C,J1*%
X49911000Y-88514000D03*
D14*
X49911000Y-91054000D03*
%TD*%
D15*
%TO.C,ref1*%
X46990000Y-80010000D03*
%TD*%
D16*
%TO.C,C4*%
X53136800Y-92848421D03*
D17*
X53136800Y-95348421D03*
%TD*%
M02*
